<svg 
 xmlns="http://www.w3.org/2000/svg"
 xmlns:xlink="http://www.w3.org/1999/xlink"
 width="28px" height="28px">
<path fill-rule="evenodd"  fill="rgb(255, 115, 64)"
 d="M14.001,28.000 C6.270,28.000 0.002,21.732 0.002,14.000 C0.002,6.268 6.270,0.000 14.001,0.000 C21.732,0.000 28.000,6.268 28.000,14.000 C28.000,21.732 21.732,28.000 14.001,28.000 ZM14.035,1.109 C6.897,1.109 1.111,6.896 1.111,14.033 C1.111,21.171 6.897,26.958 14.035,26.958 C21.172,26.958 26.958,21.171 26.958,14.033 C26.958,6.896 21.172,1.109 14.035,1.109 ZM18.855,19.647 L16.296,17.323 C15.434,17.951 14.371,18.326 13.218,18.326 C10.341,18.326 8.008,16.016 8.008,13.169 C8.008,10.320 10.341,8.012 13.218,8.012 C16.096,8.012 18.429,10.320 18.429,13.169 C18.429,13.952 18.248,14.692 17.932,15.357 L20.592,17.774 C20.868,18.024 21.008,18.366 21.008,18.711 C21.008,19.018 20.897,19.326 20.669,19.570 C20.190,20.087 19.378,20.122 18.855,19.647 ZM13.218,9.424 C11.129,9.424 9.435,11.101 9.435,13.169 C9.435,15.237 11.129,16.913 13.218,16.913 C15.308,16.913 17.002,15.237 17.002,13.169 C17.002,11.101 15.308,9.424 13.218,9.424 Z"/>
</svg>