<svg 
 xmlns="http://www.w3.org/2000/svg"
 xmlns:xlink="http://www.w3.org/1999/xlink"
 width="91px" height="91px">
<path fill-rule="evenodd"  fill="rgb(255, 255, 255)"
 d="M45.418,91.000 C20.335,91.000 0.000,70.629 0.000,45.500 C0.000,20.371 20.335,-0.000 45.418,-0.000 C70.502,-0.000 90.836,20.371 90.836,45.500 C90.836,70.629 70.502,91.000 45.418,91.000 ZM45.527,3.605 C22.371,3.605 3.599,22.411 3.599,45.609 C3.599,68.807 22.371,87.612 45.527,87.612 C68.683,87.612 87.455,68.807 87.455,45.609 C87.455,22.411 68.683,3.605 45.527,3.605 ZM71.620,56.729 L62.912,63.386 C61.847,64.201 60.668,64.853 59.411,65.325 L49.150,69.167 C48.092,69.562 46.988,69.762 45.884,69.762 C45.128,69.762 44.374,69.670 43.633,69.483 C38.963,68.309 30.063,66.720 28.652,66.469 L26.317,66.697 C25.997,67.357 25.399,67.868 24.645,68.043 C20.581,69.142 19.909,69.493 19.995,69.601 C19.935,69.589 19.872,69.591 19.814,69.572 C19.777,69.559 19.742,69.546 19.706,69.531 C19.636,69.501 19.569,69.463 19.505,69.422 C19.468,69.398 19.433,69.373 19.399,69.348 C19.176,69.168 19.004,68.921 18.922,68.624 C18.922,68.624 14.588,50.756 14.584,50.739 C14.522,50.489 14.470,50.335 14.495,50.078 C14.507,49.842 14.644,49.506 14.793,49.339 C14.973,49.109 15.228,48.928 15.543,48.838 L19.558,47.281 C20.267,47.115 20.943,47.233 21.513,47.595 C22.085,47.960 22.476,48.527 22.617,49.191 L22.872,50.228 L24.991,49.815 C26.339,48.878 31.659,45.913 40.110,50.224 L44.914,52.362 C45.031,52.412 45.154,52.432 45.281,52.419 C47.180,52.212 54.393,52.191 57.748,54.192 L61.852,53.078 C61.886,53.068 61.919,53.061 61.953,53.054 C62.081,53.029 62.204,52.984 62.318,52.921 L67.393,50.120 C68.378,49.577 69.494,49.366 70.531,49.533 C71.868,49.744 72.853,50.509 73.303,51.687 C74.150,53.902 72.644,55.899 71.620,56.729 ZM70.639,52.713 C70.596,52.603 70.531,52.435 70.086,52.364 C69.667,52.295 69.201,52.393 68.768,52.633 L63.694,55.434 C63.334,55.632 62.951,55.774 62.554,55.858 L59.471,56.694 C59.661,57.395 59.730,58.231 59.434,59.063 C59.139,59.887 58.376,60.983 56.414,61.524 C55.592,61.750 54.706,61.834 53.783,61.834 C52.380,61.834 50.895,61.638 49.439,61.447 C47.111,61.140 44.707,60.825 43.354,61.458 C42.641,61.795 41.790,61.482 41.456,60.767 C41.123,60.048 41.432,59.195 42.147,58.861 C44.255,57.873 47.079,58.245 49.809,58.605 C51.941,58.884 54.146,59.175 55.659,58.758 C56.255,58.593 56.652,58.354 56.743,58.100 C56.790,57.973 56.790,57.810 56.758,57.636 C56.657,57.064 56.255,56.589 55.723,56.361 C53.192,55.279 47.683,55.041 45.588,55.269 C44.968,55.334 44.333,55.237 43.760,54.983 L38.883,52.812 C30.940,48.762 26.665,52.119 26.488,52.264 C26.308,52.412 26.080,52.523 25.851,52.567 L23.559,53.014 L26.220,63.825 L28.570,63.597 C28.696,63.584 28.825,63.588 28.953,63.612 C29.367,63.683 39.170,65.405 44.326,66.701 C45.592,67.021 46.916,66.944 48.154,66.480 L58.413,62.640 C59.408,62.266 60.340,61.750 61.184,61.105 C64.567,58.519 71.311,54.474 70.639,52.713 ZM20.310,69.649 C20.199,69.652 20.032,69.648 19.995,69.601 C20.086,69.620 20.176,69.647 20.271,69.647 C20.287,69.647 20.297,69.648 20.310,69.649 ZM20.392,69.647 C20.367,69.649 20.339,69.649 20.312,69.649 C20.311,69.649 20.310,69.649 20.310,69.649 C20.382,69.647 20.429,69.643 20.392,69.647 ZM59.432,47.307 L41.306,47.307 C40.745,47.307 40.209,47.200 39.719,47.004 C38.129,46.368 37.003,44.807 37.003,42.985 C37.003,40.953 38.418,39.057 40.987,37.647 C43.499,36.267 46.830,35.508 50.368,35.508 C53.907,35.508 57.238,36.267 59.750,37.645 C61.033,38.352 62.031,39.178 62.705,40.084 C63.381,40.987 63.735,41.968 63.735,42.985 C63.733,45.370 61.804,47.307 59.432,47.307 ZM50.370,34.250 C46.162,34.250 42.739,30.813 42.739,26.587 C42.739,22.364 46.162,18.927 50.370,18.927 C54.576,18.927 57.998,22.364 57.998,26.587 C57.998,30.813 54.576,34.250 50.370,34.250 ZM50.370,21.956 C47.824,21.956 45.756,24.033 45.756,26.587 C45.756,29.141 47.824,31.221 50.370,31.221 C52.913,31.221 54.982,29.141 54.982,26.587 C54.982,24.033 52.913,21.956 50.370,21.956 Z"/>
</svg>