<svg 
 xmlns="http://www.w3.org/2000/svg"
 xmlns:xlink="http://www.w3.org/1999/xlink"
 width="93px" height="93px">
<path fill-rule="evenodd"  fill="rgb(117, 117, 125)"
 d="M49.049,91.938 C23.957,93.340 2.475,74.137 1.067,49.045 C-0.341,23.953 18.859,2.475 43.951,1.072 C69.043,-0.331 90.525,18.873 91.933,43.965 C93.341,69.057 74.141,90.535 49.049,91.938 ZM88.556,44.263 C87.256,21.099 67.425,3.371 44.261,4.667 C21.098,5.961 3.373,25.789 4.673,48.953 C5.973,72.116 25.804,89.844 48.968,88.549 C72.132,87.254 89.856,67.426 88.556,44.263 ZM75.219,62.994 C75.997,62.218 76.471,61.431 76.278,61.236 L81.554,65.693 C80.695,67.263 79.734,68.772 78.676,70.208 L73.458,64.051 C73.656,64.243 74.440,63.770 75.219,62.994 ZM75.219,57.368 C76.189,58.338 75.719,60.385 74.160,61.939 C72.605,63.493 70.554,63.965 69.581,62.994 C69.559,62.974 69.542,62.950 69.524,62.927 C64.237,65.780 57.483,64.984 53.022,60.533 C47.583,55.102 47.583,46.268 53.023,40.838 C58.462,35.409 67.313,35.410 72.753,40.838 C77.212,45.291 78.009,52.032 75.152,57.310 C75.173,57.331 75.197,57.346 75.219,57.368 ZM70.638,42.948 C66.358,38.676 59.418,38.673 55.135,42.948 C50.855,47.220 50.856,54.151 55.135,58.421 C59.417,62.696 66.358,62.695 70.638,58.421 C74.920,54.148 74.918,47.220 70.638,42.948 ZM57.871,43.842 C59.782,41.971 62.501,41.110 65.150,41.818 C67.800,42.527 69.722,44.629 70.440,47.203 C69.114,45.707 67.072,44.453 64.618,43.796 C62.167,43.140 59.770,43.207 57.871,43.842 ZM64.476,24.802 C64.476,23.463 63.389,22.377 62.048,22.377 L55.913,22.377 L55.224,19.629 L62.372,19.629 C65.055,19.629 67.230,21.800 67.230,24.478 L67.230,35.972 C66.336,35.711 65.416,35.528 64.476,35.432 L64.476,24.802 ZM39.691,18.254 L42.529,18.254 C42.912,16.686 44.577,15.505 46.577,15.505 C48.575,15.505 50.241,16.686 50.624,18.254 L53.461,18.254 L54.838,23.752 L38.314,23.752 L39.691,18.254 ZM40.803,44.864 C39.826,46.100 39.233,47.407 38.801,48.585 C38.185,48.583 37.602,49.224 37.602,49.224 C37.602,49.224 37.328,47.062 35.948,46.230 C36.412,46.194 36.728,45.344 36.709,44.875 C37.435,45.398 38.101,46.669 38.054,46.990 C38.304,46.123 39.439,44.567 40.305,43.646 C41.328,42.557 42.427,41.659 43.569,40.977 C43.500,41.328 43.722,41.645 44.123,41.862 C42.979,42.668 41.782,43.625 40.803,44.864 ZM44.123,27.043 C42.979,27.850 41.782,28.806 40.803,30.045 C39.826,31.281 39.233,32.588 38.801,33.766 C38.185,33.763 37.602,34.404 37.602,34.404 C37.602,34.404 37.328,32.242 35.948,31.411 C36.412,31.375 36.728,30.525 36.709,30.057 C37.435,30.580 38.101,31.850 38.054,32.171 C38.304,31.304 39.439,29.748 40.305,28.827 C41.328,27.738 42.427,26.840 43.569,26.158 C43.500,26.509 43.722,26.826 44.123,27.043 ZM34.184,29.816 C34.184,28.745 35.054,27.876 36.127,27.876 L40.503,27.876 C40.508,27.876 40.514,27.877 40.520,27.877 C40.320,28.070 40.123,28.268 39.929,28.474 C39.809,28.601 39.678,28.749 39.543,28.907 L36.188,28.907 C35.652,28.907 35.217,29.341 35.217,29.877 L35.217,34.122 C35.217,34.658 35.652,35.092 36.188,35.092 L40.441,35.092 C40.978,35.092 41.413,34.658 41.413,34.122 L41.413,30.121 C41.706,29.772 42.013,29.449 42.326,29.151 C42.402,29.359 42.446,29.582 42.446,29.816 L42.446,34.183 C42.446,35.254 41.575,36.123 40.503,36.123 L36.127,36.123 C35.054,36.123 34.184,35.254 34.184,34.183 L34.184,29.816 ZM36.127,57.514 L40.503,57.514 C41.575,57.514 42.446,58.382 42.446,59.454 L42.446,63.821 C42.446,64.893 41.575,65.761 40.503,65.761 L36.127,65.761 C35.054,65.761 34.184,64.893 34.184,63.821 L34.184,59.454 C34.184,58.382 35.054,57.514 36.127,57.514 ZM35.217,63.760 C35.217,64.296 35.652,64.730 36.188,64.730 L40.441,64.730 C40.978,64.730 41.413,64.296 41.413,63.760 L41.413,59.515 C41.413,58.979 40.978,58.545 40.441,58.545 L36.188,58.545 C35.652,58.545 35.217,58.979 35.217,59.515 L35.217,63.760 ZM34.184,44.635 C34.184,43.564 35.054,42.695 36.127,42.695 L40.503,42.695 C40.508,42.695 40.514,42.696 40.520,42.696 C40.320,42.889 40.123,43.087 39.929,43.293 C39.809,43.420 39.678,43.568 39.543,43.726 L36.188,43.726 C35.652,43.726 35.217,44.160 35.217,44.696 L35.217,48.941 C35.217,49.477 35.652,49.911 36.188,49.911 L40.441,49.911 C40.978,49.911 41.413,49.477 41.413,48.941 L41.413,44.939 C41.706,44.591 42.013,44.268 42.326,43.970 C42.402,44.178 42.446,44.401 42.446,44.635 L42.446,49.002 C42.446,50.073 41.575,50.942 40.503,50.942 L36.127,50.942 C35.054,50.942 34.184,50.073 34.184,49.002 L34.184,44.635 ZM53.043,62.324 L45.685,62.324 C45.417,62.324 45.199,62.107 45.199,61.839 L45.199,61.435 C45.199,61.167 45.417,60.950 45.685,60.950 L51.590,60.950 C52.084,61.370 52.649,61.816 53.043,62.324 ZM45.199,32.202 L45.199,31.797 C45.199,31.529 45.417,31.312 45.685,31.312 L58.482,31.312 C58.751,31.312 58.968,31.529 58.968,31.797 L58.968,32.202 C58.968,32.469 58.751,32.686 58.482,32.686 L45.685,32.686 C45.417,32.686 45.199,32.469 45.199,32.202 ZM45.685,47.505 C45.417,47.505 45.199,47.288 45.199,47.020 L45.199,46.616 C45.199,46.348 45.417,46.131 45.685,46.131 L48.481,46.131 C48.189,46.577 48.309,47.037 48.068,47.505 L45.685,47.505 ZM31.105,22.377 C29.764,22.377 28.676,23.463 28.676,24.802 L28.676,68.896 C28.676,70.235 29.764,71.321 31.105,71.321 L62.048,71.321 C63.389,71.321 64.476,70.235 64.476,68.896 L64.476,65.932 C65.410,65.834 66.332,65.651 67.230,65.388 L67.230,69.221 C67.230,71.898 65.055,74.069 62.372,74.069 L30.780,74.069 C28.098,74.069 25.923,71.898 25.923,69.221 L25.923,24.478 C25.923,21.800 28.098,19.629 30.780,19.629 L37.928,19.629 L37.240,22.377 L31.105,22.377 Z"/>
</svg>