<svg 
 xmlns="http://www.w3.org/2000/svg"
 xmlns:xlink="http://www.w3.org/1999/xlink"
 width="92px" height="92px">
<path fill-rule="evenodd"  fill="rgb(31, 73, 165)"
 d="M48.558,91.593 C23.381,93.000 1.825,73.729 0.413,48.549 C-1.000,23.369 18.265,1.816 43.442,0.408 C68.619,-1.000 90.175,18.271 91.587,43.451 C93.000,68.631 73.735,90.185 48.558,91.593 ZM88.199,43.750 C86.895,20.505 66.996,2.715 43.754,4.015 C20.511,5.314 2.727,25.211 4.031,48.456 C5.335,71.701 25.234,89.491 48.476,88.191 C71.719,86.892 89.503,66.995 88.199,43.750 ZM59.509,51.651 C61.316,50.703 63.371,50.164 65.553,50.164 C72.752,50.164 78.588,56.000 78.588,63.200 C78.588,63.814 78.542,64.418 78.460,65.010 L65.010,65.010 C65.010,59.807 62.907,55.087 59.509,51.651 ZM65.553,48.716 C61.053,48.716 57.406,45.068 57.406,40.569 C57.406,36.070 61.053,32.422 65.553,32.422 C70.052,32.422 73.700,36.070 73.700,40.569 C73.700,45.068 70.052,48.716 65.553,48.716 ZM46.000,46.000 C40.751,46.000 36.495,41.745 36.495,36.496 C36.495,31.246 40.751,26.991 46.000,26.991 C51.249,26.991 55.505,31.246 55.505,36.496 C55.505,41.745 51.249,46.000 46.000,46.000 ZM26.447,48.716 C21.948,48.716 18.300,45.068 18.300,40.569 C18.300,36.070 21.948,32.422 26.447,32.422 C30.947,32.422 34.594,36.070 34.594,40.569 C34.594,45.068 30.947,48.716 26.447,48.716 ZM32.491,51.651 C29.093,55.087 26.990,59.807 26.990,65.010 L13.540,65.010 C13.458,64.418 13.412,63.814 13.412,63.200 C13.412,56.000 19.248,50.164 26.447,50.164 C28.629,50.164 30.684,50.703 32.491,51.651 ZM46.000,48.716 C54.999,48.716 62.294,56.011 62.294,65.010 L29.706,65.010 C29.706,56.011 37.001,48.716 46.000,48.716 Z"/>
</svg>