<svg 
 xmlns="http://www.w3.org/2000/svg"
 xmlns:xlink="http://www.w3.org/1999/xlink"
 width="127px" height="127px">
<path fill-rule="evenodd"  fill="rgb(255, 255, 255)"
 d="M67.055,126.870 C32.061,128.826 2.101,102.043 0.137,67.049 C-1.826,32.055 24.950,2.101 59.944,0.145 C94.939,-1.812 124.899,24.970 126.863,59.965 C128.826,94.958 102.049,124.913 67.055,126.870 ZM122.153,60.379 C120.341,28.075 92.683,3.351 60.378,5.157 C28.073,6.963 3.353,34.615 5.166,66.920 C6.979,99.225 34.637,123.950 66.942,122.143 C99.247,120.337 123.966,92.685 122.153,60.379 ZM103.553,86.503 C104.638,85.420 105.298,84.323 105.029,84.051 L112.388,90.267 C111.190,92.457 109.850,94.562 108.375,96.563 L101.096,87.978 C101.372,88.245 102.467,87.585 103.553,86.503 ZM103.553,78.657 C104.906,80.010 104.250,82.865 102.076,85.032 C99.908,87.199 97.047,87.858 95.690,86.503 C95.659,86.475 95.635,86.441 95.610,86.410 C88.236,90.388 78.818,89.279 72.596,83.071 C65.010,75.497 65.010,63.177 72.597,55.604 C80.183,48.032 92.526,48.033 100.113,55.604 C106.333,61.813 107.444,71.216 103.460,78.576 C103.489,78.605 103.522,78.627 103.553,78.657 ZM97.164,58.545 C91.195,52.588 81.515,52.584 75.543,58.545 C69.574,64.504 69.575,74.171 75.543,80.126 C81.514,86.087 91.194,86.087 97.164,80.126 C103.136,74.166 103.132,64.504 97.164,58.545 ZM88.769,59.729 C85.350,58.814 82.007,58.907 79.359,59.792 C82.024,57.184 85.816,55.983 89.510,56.971 C93.206,57.959 95.886,60.891 96.888,64.480 C95.039,62.393 92.190,60.645 88.769,59.729 ZM88.571,33.239 C88.571,31.371 87.054,29.857 85.183,29.857 L76.628,29.857 L75.667,26.024 L85.636,26.024 C89.378,26.024 92.411,29.052 92.411,32.786 L92.411,48.816 C91.165,48.453 89.881,48.198 88.571,48.064 L88.571,33.239 ZM54.004,24.107 L57.962,24.107 C58.496,21.920 60.819,20.274 63.607,20.274 C66.394,20.274 68.717,21.920 69.251,24.107 L73.208,24.107 L75.128,31.774 L52.084,31.774 L54.004,24.107 ZM55.555,61.219 C54.192,62.942 53.364,64.764 52.763,66.408 C51.904,66.404 51.091,67.298 51.091,67.298 C51.091,67.298 50.709,64.283 48.784,63.124 C49.431,63.074 49.872,61.888 49.846,61.235 C50.858,61.964 51.787,63.736 51.721,64.184 C52.070,62.974 53.652,60.804 54.860,59.520 C56.287,58.001 57.819,56.749 59.412,55.797 C59.316,56.287 59.626,56.728 60.185,57.032 C58.589,58.157 56.920,59.490 55.555,61.219 ZM60.185,36.364 C58.589,37.489 56.920,38.823 55.555,40.552 C54.192,42.275 53.364,44.097 52.763,45.741 C51.904,45.737 51.091,46.631 51.091,46.631 C51.091,46.631 50.709,43.616 48.784,42.457 C49.431,42.406 49.872,41.220 49.846,40.567 C50.858,41.296 51.787,43.069 51.721,43.517 C52.070,42.307 53.652,40.137 54.860,38.853 C56.287,37.334 57.819,36.082 59.412,35.130 C59.316,35.619 59.626,36.061 60.185,36.364 ZM46.324,40.231 C46.324,38.738 47.537,37.526 49.033,37.526 L55.136,37.526 C55.144,37.526 55.151,37.528 55.159,37.528 C54.881,37.796 54.606,38.072 54.336,38.360 C54.168,38.538 53.986,38.744 53.798,38.964 L49.119,38.964 C48.371,38.964 47.764,39.570 47.764,40.316 L47.764,46.237 C47.764,46.984 48.371,47.590 49.119,47.590 L55.050,47.590 C55.798,47.590 56.405,46.984 56.405,46.237 L56.405,40.656 C56.814,40.171 57.242,39.720 57.678,39.304 C57.785,39.594 57.846,39.905 57.846,40.231 L57.846,46.322 C57.846,47.816 56.632,49.028 55.136,49.028 L49.033,49.028 C47.537,49.028 46.324,47.816 46.324,46.322 L46.324,40.231 ZM49.033,78.861 L55.136,78.861 C56.632,78.861 57.846,80.072 57.846,81.566 L57.846,87.657 C57.846,89.151 56.632,90.362 55.136,90.362 L49.033,90.362 C47.537,90.362 46.324,89.151 46.324,87.657 L46.324,81.566 C46.324,80.072 47.537,78.861 49.033,78.861 ZM47.764,87.572 C47.764,88.319 48.371,88.924 49.119,88.924 L55.050,88.924 C55.798,88.924 56.405,88.319 56.405,87.572 L56.405,81.651 C56.405,80.904 55.798,80.299 55.050,80.299 L49.119,80.299 C48.371,80.299 47.764,80.904 47.764,81.651 L47.764,87.572 ZM46.324,60.898 C46.324,59.405 47.537,58.194 49.033,58.194 L55.136,58.194 C55.144,58.194 55.151,58.195 55.159,58.195 C54.881,58.464 54.606,58.740 54.336,59.027 C54.168,59.205 53.986,59.411 53.798,59.631 L49.119,59.631 C48.371,59.631 47.764,60.237 47.764,60.983 L47.764,66.905 C47.764,67.651 48.371,68.257 49.119,68.257 L55.050,68.257 C55.798,68.257 56.405,67.651 56.405,66.905 L56.405,61.324 C56.814,60.838 57.242,60.387 57.678,59.971 C57.785,60.261 57.846,60.572 57.846,60.898 L57.846,66.990 C57.846,68.484 56.632,69.695 55.136,69.695 L49.033,69.695 C47.537,69.695 46.324,68.484 46.324,66.990 L46.324,60.898 ZM72.625,85.569 L62.363,85.569 C61.989,85.569 61.686,85.267 61.686,84.893 L61.686,84.329 C61.686,83.955 61.989,83.652 62.363,83.652 L70.598,83.652 C71.287,84.238 72.075,84.861 72.625,85.569 ZM61.686,43.559 L61.686,42.994 C61.686,42.621 61.989,42.318 62.363,42.318 L80.211,42.318 C80.585,42.318 80.889,42.621 80.889,42.994 L80.889,43.559 C80.889,43.932 80.585,44.234 80.211,44.234 L62.363,44.234 C61.989,44.234 61.686,43.932 61.686,43.559 ZM62.363,64.901 C61.989,64.901 61.686,64.598 61.686,64.226 L61.686,63.662 C61.686,63.288 61.989,62.985 62.363,62.985 L66.262,62.985 C65.855,63.608 66.023,64.249 65.687,64.901 L62.363,64.901 ZM42.030,29.857 C40.159,29.857 38.642,31.371 38.642,33.239 L38.642,94.735 C38.642,96.603 40.159,98.117 42.030,98.117 L85.183,98.117 C87.054,98.117 88.571,96.603 88.571,94.735 L88.571,90.600 C89.873,90.465 91.158,90.208 92.411,89.842 L92.411,95.187 C92.411,98.922 89.378,101.950 85.636,101.950 L41.576,101.950 C37.835,101.950 34.802,98.922 34.802,95.187 L34.802,32.786 C34.802,29.052 37.835,26.024 41.576,26.024 L51.545,26.024 L50.585,29.857 L42.030,29.857 Z"/>
</svg>