<svg 
 xmlns="http://www.w3.org/2000/svg"
 xmlns:xlink="http://www.w3.org/1999/xlink"
 width="92px" height="92px">
<path fill-rule="evenodd"  fill="rgb(31, 73, 165)"
 d="M48.551,91.566 C23.376,92.974 1.822,73.704 0.409,48.526 C-1.003,23.347 18.261,1.796 43.436,0.388 C68.612,-1.020 90.165,18.250 91.578,43.428 C92.990,68.606 73.727,90.158 48.551,91.566 ZM88.190,43.727 C86.886,20.484 66.989,2.695 43.748,3.995 C20.507,5.294 2.723,25.189 4.027,48.433 C5.331,71.676 25.229,89.465 48.470,88.165 C71.711,86.866 89.494,66.970 88.190,43.727 ZM70.097,66.674 C69.447,67.074 68.798,67.276 68.193,67.276 C67.758,67.276 67.346,67.172 66.970,66.962 C66.044,66.444 65.512,65.340 65.512,63.933 L65.512,61.189 L62.156,61.189 L62.144,61.185 C53.665,61.116 47.696,56.596 42.973,52.176 L42.316,51.562 L42.951,50.925 C43.727,50.145 44.499,49.354 45.180,48.655 C46.197,47.606 47.404,46.371 48.641,45.179 L49.236,44.605 L49.840,45.169 C55.651,50.599 59.417,51.332 62.334,51.332 L65.506,51.332 L65.506,48.591 C65.506,47.183 66.037,46.078 66.962,45.560 C67.860,45.057 68.972,45.159 70.093,45.847 L70.183,45.902 L77.814,53.646 C79.722,55.551 79.723,56.969 77.819,58.876 L70.187,66.618 L70.097,66.674 ZM77.508,56.262 C77.508,55.952 77.204,55.499 76.581,54.877 L76.576,54.872 L69.096,47.281 C68.579,46.985 68.115,46.912 67.813,47.081 C67.460,47.278 67.249,47.843 67.249,48.591 L67.249,53.074 L62.334,53.074 C56.862,53.074 52.665,50.095 49.262,47.006 C48.251,47.998 47.275,48.998 46.429,49.870 C45.930,50.382 45.384,50.942 44.822,51.512 C47.540,53.990 49.857,55.677 52.253,56.932 C55.465,58.614 58.748,59.435 62.290,59.443 L62.439,59.447 L67.255,59.447 L67.255,63.933 C67.255,64.679 67.466,65.243 67.820,65.441 C68.122,65.609 68.584,65.536 69.098,65.240 L76.582,57.649 C77.207,57.023 77.508,56.571 77.508,56.262 ZM69.098,42.925 C68.584,43.220 68.121,43.294 67.818,43.125 C67.464,42.927 67.252,42.363 67.252,41.617 L67.252,37.128 L62.337,37.128 C54.975,37.128 49.865,42.383 44.455,47.947 C41.269,51.224 37.975,54.612 34.012,57.184 C29.566,60.070 24.897,61.473 19.737,61.473 L15.645,61.473 C15.005,61.473 14.484,60.953 14.484,60.315 L14.484,56.259 C14.484,55.620 15.005,55.101 15.645,55.101 L19.731,55.101 C23.638,55.101 27.332,53.882 31.024,51.377 C34.268,49.175 37.234,46.184 40.103,43.291 C46.203,37.141 52.511,30.782 62.287,30.762 L67.249,30.759 L67.249,26.275 C67.249,25.529 67.459,24.965 67.812,24.767 C68.114,24.598 68.578,24.672 69.096,24.969 L76.576,32.556 L76.580,32.561 C77.188,33.169 77.486,33.619 77.489,33.938 C77.493,34.262 77.197,34.717 76.579,35.333 L69.098,42.925 ZM39.388,42.577 C38.479,43.493 37.715,44.258 36.943,45.015 L36.339,45.607 L35.729,45.022 C30.619,40.115 25.944,36.848 19.737,36.848 L15.645,36.848 C14.044,36.848 12.741,35.546 12.741,33.947 L12.741,29.891 C12.741,28.291 14.044,26.990 15.645,26.990 L19.734,26.990 C30.101,26.990 36.911,32.293 42.727,38.023 L43.364,38.651 L42.719,39.272 C41.617,40.332 40.558,41.396 39.388,42.577 ZM32.175,31.921 C28.286,29.775 24.216,28.732 19.734,28.732 L15.645,28.732 C15.005,28.732 14.484,29.252 14.484,29.891 L14.484,33.947 C14.484,34.585 15.005,35.105 15.645,35.105 L19.737,35.105 C23.031,35.105 26.131,35.954 29.216,37.701 C31.950,39.249 34.401,41.371 36.322,43.180 C36.893,42.614 37.482,42.023 38.151,41.349 C39.100,40.391 39.977,39.509 40.866,38.642 C38.483,36.334 35.618,33.820 32.175,31.921 Z"/>
</svg>