<?xml version="1.0" encoding="utf-8"?>
<!-- Generator: Adobe Illustrator 23.0.3, SVG Export Plug-In . SVG Version: 6.00 Build 0)  -->
<svg version="1.1" id="Layer_1" xmlns="http://www.w3.org/2000/svg" xmlns:xlink="http://www.w3.org/1999/xlink" x="0px" y="0px"
	 viewBox="0 0 93 93" style="enable-background:new 0 0 93 93;" xml:space="preserve" width="91px" height="91px">
<style type="text/css">
	.st0{fill:#75757D;}
</style>
<g>
	<g>
		<path class="st0" d="M91.93,43.96C90.52,18.86,69.04-0.35,43.95,1.05C18.86,2.46-0.34,23.94,1.07,49.04
			c1.41,25.1,22.89,44.31,47.98,42.91C74.14,90.54,93.34,69.06,91.93,43.96z M48.97,88.56C25.81,89.85,5.98,72.12,4.68,48.95
			C3.38,25.78,21.1,5.94,44.26,4.65c23.16-1.3,42.99,16.44,44.29,39.61C89.85,67.43,72.13,87.26,48.97,88.56z M66.28,33.11
			c0-6.01-2.12-10.54-6.36-13.6c-4.24-3.06-9.56-4.59-15.96-4.59c-4.88,0-8.98,1.08-12.33,3.23c-5.3,3.37-8.12,9.1-8.46,17.17h12.29
			c0-2.35,0.69-4.62,2.06-6.8c1.37-2.18,3.7-3.27,6.98-3.27c3.34,0,5.63,0.89,6.89,2.66c1.26,1.77,1.89,3.73,1.89,5.89
			c0,1.87-0.57,3.59-1.7,5.14c-0.62,0.91-1.44,1.74-2.46,2.51l-3.09,2.42c-3.05,2.38-4.94,4.49-5.68,6.31
			c-0.73,1.83-1.19,5.14-1.36,9.93h11.52c0.03-2.27,0.21-3.94,0.55-5.02c0.54-1.7,1.62-3.19,3.26-4.46l3.01-2.34
			c3.05-2.38,5.12-4.34,6.19-5.87C65.37,39.9,66.28,36.8,66.28,33.11z M38.69,78.22H51.4V65.93H38.69V78.22z M69.64,69.04h5.42V63.8
			h-5.42V69.04z M78.7,44c-1.81-1.31-4.08-1.96-6.81-1.96c-2.08,0-3.83,0.46-5.26,1.38c-2.26,1.44-3.46,3.88-3.61,7.33h5.24
			c0-1,0.29-1.97,0.88-2.9c0.58-0.93,1.58-1.4,2.98-1.4c1.42,0,2.4,0.38,2.94,1.13c0.54,0.76,0.8,1.59,0.8,2.51
			c0,0.8-0.24,1.53-0.72,2.19c-0.27,0.39-0.61,0.74-1.05,1.07l-1.32,1.03c-1.3,1.02-2.11,1.91-2.42,2.69
			c-0.31,0.78-0.51,2.19-0.58,4.23h4.91c0.01-0.97,0.09-1.68,0.24-2.14c0.23-0.73,0.69-1.36,1.39-1.9l1.28-1
			c1.3-1.02,2.18-1.85,2.64-2.5c0.78-1.08,1.18-2.4,1.18-3.97C81.41,47.24,80.51,45.31,78.7,44z M21.64,69.04h5.42V63.8h-5.42V69.04
			z M30.7,44c-1.81-1.31-4.08-1.96-6.81-1.96c-2.08,0-3.83,0.46-5.26,1.38c-2.26,1.44-3.46,3.88-3.61,7.33h5.24
			c0-1,0.29-1.97,0.88-2.9c0.58-0.93,1.58-1.4,2.98-1.4c1.42,0,2.4,0.38,2.94,1.13c0.54,0.76,0.8,1.59,0.8,2.51
			c0,0.8-0.24,1.53-0.72,2.19c-0.27,0.39-0.61,0.74-1.05,1.07l-1.32,1.03c-1.3,1.02-2.11,1.91-2.42,2.69
			c-0.31,0.78-0.51,2.19-0.58,4.23h4.91c0.01-0.97,0.09-1.68,0.24-2.14c0.23-0.73,0.69-1.36,1.39-1.9l1.28-1
			c1.3-1.02,2.18-1.85,2.64-2.5c0.78-1.08,1.18-2.4,1.18-3.97C33.41,47.24,32.51,45.31,30.7,44z"/>
	</g>
</g>
</svg>
