<svg 
 xmlns="http://www.w3.org/2000/svg"
 xmlns:xlink="http://www.w3.org/1999/xlink"
 width="77px" height="76px">
<path fill-rule="evenodd"  fill="rgb(217, 82, 33)"
 d="M38.623,75.997 C17.461,75.997 0.245,58.952 0.245,37.999 C0.245,17.046 17.461,-0.000 38.623,-0.000 C59.784,-0.000 77.000,17.046 77.000,37.999 C77.000,58.952 59.784,75.997 38.623,75.997 ZM38.623,3.042 C19.156,3.042 3.318,18.724 3.318,37.999 C3.318,57.274 19.156,72.955 38.623,72.955 C58.090,72.955 73.927,57.274 73.927,37.999 C73.927,18.724 58.090,3.042 38.623,3.042 ZM49.515,43.169 C49.515,39.926 48.281,38.116 45.713,38.116 C42.918,38.116 41.458,40.002 41.458,43.169 C41.458,46.639 41.458,54.994 41.458,54.994 L34.759,54.994 L34.759,32.468 L41.458,32.468 L41.458,35.502 C41.458,35.502 43.472,31.780 48.257,31.780 C53.040,31.780 56.465,34.697 56.465,40.731 C56.465,46.765 56.465,54.994 56.465,54.994 L49.515,54.994 C49.515,54.994 49.515,46.413 49.515,43.169 ZM26.770,29.518 C24.489,29.518 22.641,27.655 22.641,25.360 C22.641,23.065 24.489,21.204 26.770,21.204 C29.051,21.204 30.899,23.065 30.899,25.360 C30.899,27.655 29.051,29.518 26.770,29.518 ZM30.295,54.994 L23.312,54.994 L23.312,32.468 L30.295,32.468 L30.295,54.994 Z"/>
</svg>