<svg 
 xmlns="http://www.w3.org/2000/svg"
 xmlns:xlink="http://www.w3.org/1999/xlink"
 width="93px" height="93px">
<path fill-rule="evenodd"  fill="rgb(117, 117, 125)"
 d="M49.049,91.948 C23.960,93.352 2.480,74.141 1.072,49.041 C-0.335,23.940 18.862,2.456 43.951,1.052 C69.040,-0.352 90.520,18.859 91.927,43.959 C93.335,69.060 74.138,90.545 49.049,91.948 ZM88.551,44.257 C87.252,21.085 67.422,3.352 44.262,4.647 C21.101,5.942 3.378,25.777 4.678,48.948 C5.977,72.120 25.807,89.854 48.968,88.558 C72.129,87.263 89.851,67.429 88.551,44.257 ZM59.283,63.905 C58.340,63.958 57.951,71.585 58.188,82.559 C55.137,83.459 51.934,84.024 48.620,84.210 L48.617,84.210 C43.352,84.504 38.259,83.815 33.517,82.302 C33.191,74.199 32.465,57.320 30.596,53.317 C28.416,48.652 23.302,45.071 20.034,33.014 C19.646,31.580 19.564,30.081 19.817,28.624 C19.817,28.624 22.377,20.119 28.120,27.102 C29.236,29.082 29.343,30.981 29.343,30.981 C29.343,30.981 30.838,39.860 38.158,45.924 C45.478,51.987 56.192,51.886 56.192,51.886 C56.192,51.886 63.645,50.354 67.620,61.466 C68.477,63.863 69.296,69.049 69.956,76.966 C67.586,78.588 65.037,79.974 62.343,81.090 C61.372,70.827 60.191,63.854 59.283,63.905 ZM49.168,46.647 C43.000,46.992 37.702,42.241 37.355,36.057 C37.008,29.873 41.743,24.563 47.911,24.217 C54.076,23.873 59.374,28.623 59.721,34.805 C60.068,40.991 55.334,46.302 49.168,46.647 ZM48.159,28.651 C44.428,28.860 41.567,32.070 41.776,35.809 C41.986,39.547 45.189,42.421 48.920,42.212 C52.648,42.004 55.509,38.791 55.300,35.053 C55.090,31.314 51.887,28.443 48.159,28.651 Z"/>
</svg>