<?xml version="1.0" encoding="UTF-8"?>
<!DOCTYPE svg PUBLIC "-//W3C//DTD SVG 1.1//EN" "http://www.w3.org/Graphics/SVG/1.1/DTD/svg11.dtd">
<!-- Creator: CorelDRAW X6 -->
<svg xmlns="http://www.w3.org/2000/svg" xml:space="preserve" width="9.22222in" height="3.27778in" version="1.1" style="shape-rendering:geometricPrecision; text-rendering:geometricPrecision; image-rendering:optimizeQuality; fill-rule:evenodd; clip-rule:evenodd"
viewBox="0 0 9222 3278"
 xmlns:xlink="http://www.w3.org/1999/xlink">
 <defs>
  <style type="text/css">
   <![CDATA[
    .fil0 {fill:#3555A3;fill-rule:nonzero}
    .fil1 {fill:#5079BB;fill-rule:nonzero}
    .fil2 {fill:#7A7B82;fill-rule:nonzero}
   ]]>
  </style>
 </defs>
 <g id="Layer_x0020_1">
  <metadata id="CorelCorpID_0Corel-Layer"/>
  <path class="fil0" d="M1380 2116l-27 -194 -441 440c-8,8 2,21 12,16l456 -262z"/>
  <path class="fil0" d="M1159 1380l194 -27 -440 -441c-8,-8 -21,2 -16,12l261 456z"/>
  <path class="fil1" d="M2116 1895l-194 27 440 441c8,8 21,-2 16,-12l-262 -456z"/>
  <path class="fil1" d="M1896 1159l27 194 441 -440c8,-8 -2,-21 -12,-16l-456 261z"/>
  <path class="fil1" d="M1922 1354l-285 284 1580 1c12,0 14,-17 2,-20l-1297 -266z"/>
  <path class="fil1" d="M1354 1353l284 284 1 -1580c0,-12 -17,-14 -20,-2l-266 1297z"/>
  <path class="fil0" d="M1636 3218l1 -1580 284 285 -266 1297c-2,12 -20,10 -20,-2z"/>
  <path class="fil0" d="M1353 1922l284 -284 -1580 -1c-12,0 -14,17 -2,20l1297 266z"/>
  <path class="fil2" d="M1441 2804c-534,-64 -959,-488 -1025,-1021l-51 -13c62,571 517,1025 1089,1085l-13 -51z"/>
  <path class="fil2" d="M416 1495c65,-533 488,-957 1022,-1023l13 -51c-571,61 -1025,516 -1085,1087l51 -13z"/>
  <path class="fil2" d="M1835 472c534,64 959,488 1025,1021l51 13c-62,-571 -517,-1025 -1089,-1085l13 51z"/>
  <path class="fil2" d="M2860 1781c-65,533 -488,957 -1022,1023l-13 51c571,-61 1025,-516 1085,-1087l-51 13z"/>
  <polygon class="fil0" points="3435,709 3547,709 3906,1247 4265,709 4377,709 4377,1694 4266,1694 4266,896 3907,1424 3902,1424 3543,898 3543,1694 3435,1694 "/>
  <path class="fil0" d="M5171 1286c-3,-33 -10,-64 -21,-93 -11,-29 -27,-55 -46,-78 -19,-22 -43,-40 -70,-53 -28,-13 -59,-20 -95,-20 -31,0 -60,6 -87,18 -27,12 -51,29 -72,51 -21,22 -38,48 -51,78 -14,30 -22,62 -26,96l468 0zm-468 89c4,38 13,73 28,103 15,30 34,55 58,76 23,21 50,36 79,47 29,11 60,16 91,16 51,0 94,-9 130,-28 36,-19 69,-44 99,-75l68 60c-37,41 -78,74 -125,99 -47,25 -105,37 -174,37 -50,0 -97,-9 -141,-27 -44,-18 -83,-44 -115,-77 -33,-33 -59,-73 -78,-120 -19,-47 -29,-98 -29,-155 0,-53 9,-102 26,-148 17,-46 42,-87 72,-121 31,-34 68,-61 110,-81 43,-20 89,-30 140,-30 53,0 101,10 143,30 42,20 78,48 107,82 29,35 51,75 66,122 15,47 23,97 23,151 0,5 0,10 0,16 0,6 0,13 -1,22l-577 0z"/>
  <path class="fil0" d="M5470 967l108 0 0 190c13,-30 30,-58 49,-83 20,-25 42,-47 68,-65 25,-18 53,-32 83,-42 30,-9 62,-14 97,-13l0 117 -8 0c-39,0 -77,7 -112,21 -35,14 -66,35 -92,63 -26,28 -47,63 -62,105 -15,42 -23,90 -23,144l0 290 -108 0 0 -727z"/>
  <path class="fil0" d="M6050 967l108 0 0 727 -108 0 0 -727zm-7 -279l124 0 0 120 -124 0 0 -120z"/>
  <path class="fil0" d="M6735 1612c34,0 66,-7 98,-20 31,-14 60,-33 84,-58 25,-25 45,-54 59,-89 15,-34 22,-72 22,-115l0 -3c0,-42 -7,-80 -22,-115 -15,-34 -34,-64 -59,-88 -25,-24 -53,-43 -84,-57 -31,-14 -64,-20 -98,-20 -36,0 -69,6 -100,19 -31,13 -58,31 -81,55 -23,24 -41,53 -55,88 -14,35 -20,74 -20,118l0 3c0,43 7,82 20,117 14,35 32,64 56,89 23,24 51,43 82,56 31,13 64,20 98,20zm-20 97c-44,0 -87,-8 -128,-25 -41,-17 -78,-42 -111,-74 -33,-32 -59,-72 -79,-118 -20,-46 -30,-100 -30,-160l0 -3c0,-59 10,-112 30,-159 20,-47 46,-87 79,-119 33,-32 70,-57 111,-75 41,-17 84,-26 128,-26 34,0 65,4 93,13 28,8 53,20 76,34 23,14 43,31 61,49 18,19 34,38 49,59l0 -439 108 0 0 1027 -108 0 0 -146c-15,22 -32,42 -50,62 -18,20 -39,37 -61,52 -23,15 -48,27 -75,35 -28,8 -58,13 -92,13z"/>
  <path class="fil0" d="M7354 967l108 0 0 727 -108 0 0 -727zm-7 -279l124 0 0 120 -124 0 0 -120z"/>
  <path class="fil0" d="M8247 1286c-3,-33 -10,-64 -21,-93 -11,-29 -27,-55 -46,-78 -19,-22 -43,-40 -70,-53 -28,-13 -59,-20 -95,-20 -31,0 -60,6 -87,18 -27,12 -51,29 -72,51 -21,22 -38,48 -51,78 -14,30 -22,62 -26,96l468 0zm-468 89c4,38 13,73 28,103 15,30 34,55 58,76 23,21 50,36 79,47 29,11 60,16 91,16 51,0 94,-9 130,-28 36,-19 69,-44 99,-75l68 60c-37,41 -78,74 -125,99 -47,25 -105,37 -174,37 -50,0 -97,-9 -141,-27 -44,-18 -83,-44 -115,-77 -33,-33 -59,-73 -78,-120 -19,-47 -29,-98 -29,-155 0,-53 9,-102 26,-148 17,-46 42,-87 72,-121 31,-34 68,-61 110,-81 43,-20 89,-30 140,-30 53,0 101,10 143,30 42,20 78,48 107,82 29,35 51,75 66,122 15,47 23,97 23,151 0,5 0,10 0,16 0,6 0,13 -1,22l-577 0z"/>
  <path class="fil0" d="M8546 967l108 0 0 127c24,-39 56,-73 96,-101 39,-28 90,-42 153,-42 44,0 83,7 117,21 34,14 63,34 87,60 24,26 42,57 55,92 13,36 19,75 19,118l0 452 -108 0 0 -424c0,-67 -17,-121 -52,-160 -35,-39 -84,-59 -149,-59 -31,0 -60,5 -87,16 -27,11 -50,26 -70,46 -20,20 -35,44 -46,72 -11,28 -16,59 -16,93l0 415 -108 0 0 -727z"/>
  <path class="fil2" d="M3745 2235c27,0 53,-4 76,-11 23,-7 43,-17 60,-30 17,-13 30,-29 40,-47 9,-19 14,-40 14,-64l0 -2c0,-46 -17,-81 -50,-107 -33,-26 -79,-38 -139,-38l-228 0 0 299 227 0zm-310 -375l317 0c46,0 86,7 121,19 35,13 65,31 88,54 18,18 32,40 42,64 10,25 15,52 15,81l0 2c0,31 -5,58 -15,83 -10,24 -24,45 -42,63 -18,18 -39,33 -64,44 -25,12 -51,20 -80,25l226 301 -102 0 -214 -286 -210 0 0 286 -83 0 0 -736z"/>
  <path class="fil2" d="M4547 2291c-2,-24 -7,-48 -16,-70 -8,-22 -20,-41 -34,-58 -14,-17 -32,-30 -53,-40 -21,-10 -44,-15 -71,-15 -23,0 -45,5 -65,14 -20,9 -38,22 -54,38 -15,16 -28,36 -38,58 -10,22 -17,46 -19,72l350 0zm-350 66c3,29 10,54 21,77 11,22 26,41 43,57 18,15 37,27 59,35 22,8 45,12 68,12 38,0 70,-7 97,-21 27,-14 52,-33 74,-56l51 45c-27,31 -59,56 -94,74 -35,19 -79,28 -130,28 -37,0 -72,-7 -105,-21 -33,-14 -62,-33 -86,-58 -25,-25 -44,-55 -58,-90 -14,-35 -22,-74 -22,-116 0,-39 6,-76 19,-111 13,-35 31,-65 54,-90 23,-26 51,-46 83,-60 32,-15 67,-22 105,-22 40,0 76,8 107,23 32,15 58,36 80,62 22,26 38,56 49,92 11,35 17,73 17,113 0,4 0,8 0,12 0,5 0,10 -1,16l-431 0z"/>
  <path class="fil2" d="M4951 2606c-39,0 -79,-7 -119,-22 -40,-14 -75,-34 -106,-58l41 -58c29,22 60,40 92,52 32,12 64,18 96,18 33,0 60,-8 81,-23 21,-15 32,-36 32,-63l0 -2c0,-13 -4,-25 -11,-35 -7,-10 -17,-18 -30,-26 -13,-7 -27,-14 -44,-19 -16,-6 -34,-11 -51,-16 -21,-6 -42,-13 -64,-21 -21,-7 -41,-17 -58,-28 -17,-11 -31,-25 -42,-42 -11,-17 -16,-38 -16,-63l0 -2c0,-23 5,-44 14,-64 9,-19 22,-36 38,-49 16,-14 36,-24 59,-32 23,-7 48,-11 74,-11 34,0 68,5 102,16 34,11 66,25 94,44l-37 61c-25,-16 -52,-29 -79,-38 -28,-9 -55,-14 -82,-14 -32,0 -58,8 -77,23 -19,15 -28,34 -28,56l0 2c0,13 4,24 12,33 8,9 18,18 31,25 13,7 28,13 45,19 17,6 34,11 53,17 21,6 42,13 63,21 21,8 39,18 56,29 17,12 30,26 41,43 10,17 15,38 15,62l0 2c0,26 -5,49 -15,69 -10,20 -24,37 -41,51 -17,14 -38,25 -61,32 -24,7 -49,11 -76,11z"/>
  <path class="fil2" d="M5682 2291c-2,-24 -7,-48 -16,-70 -8,-22 -20,-41 -34,-58 -14,-17 -32,-30 -53,-40 -21,-10 -44,-15 -71,-15 -23,0 -45,5 -65,14 -20,9 -38,22 -54,38 -15,16 -28,36 -38,58 -10,22 -17,46 -19,72l350 0zm-350 66c3,29 10,54 21,77 11,22 26,41 43,57 18,15 37,27 59,35 22,8 45,12 68,12 38,0 70,-7 97,-21 27,-14 52,-33 74,-56l51 45c-27,31 -59,56 -94,74 -35,19 -79,28 -130,28 -37,0 -72,-7 -105,-21 -33,-14 -62,-33 -86,-58 -25,-25 -44,-55 -58,-90 -14,-35 -22,-74 -22,-116 0,-39 6,-76 19,-111 13,-35 31,-65 54,-90 23,-26 51,-46 83,-60 32,-15 67,-22 105,-22 40,0 76,8 107,23 32,15 58,36 80,62 22,26 38,56 49,92 11,35 17,73 17,113 0,4 0,8 0,12 0,5 0,10 -1,16l-431 0z"/>
  <path class="fil2" d="M6084 2541c25,0 49,-4 70,-10 22,-7 41,-17 57,-30 16,-13 29,-28 39,-46 9,-18 14,-38 14,-59l0 -50c-20,-6 -43,-11 -69,-16 -26,-5 -56,-7 -89,-7 -50,0 -89,10 -117,30 -28,20 -41,46 -41,79l0 2c0,17 4,32 11,46 7,14 17,25 30,34 13,9 27,16 44,21 16,5 34,7 52,7zm-16 66c-25,0 -50,-4 -75,-11 -25,-7 -46,-18 -65,-32 -19,-14 -34,-32 -46,-53 -12,-21 -17,-46 -17,-74l0 -2c0,-29 6,-55 17,-77 11,-22 27,-41 48,-55 21,-15 45,-26 74,-34 28,-8 60,-12 94,-12 35,0 65,2 91,6 26,4 51,10 75,17l0 -17c0,-48 -14,-84 -42,-109 -28,-25 -68,-37 -119,-37 -32,0 -62,4 -88,11 -26,7 -52,16 -77,28l-24 -67c30,-14 61,-26 92,-34 31,-9 66,-13 106,-13 77,0 136,20 176,60 38,38 57,91 57,160l0 332 -80 0 0 -81c-19,25 -44,46 -76,65 -32,19 -72,28 -119,28z"/>
  <path class="fil2" d="M6515 2052l81 0 0 142c10,-22 22,-43 37,-62 15,-19 32,-35 50,-49 19,-14 40,-24 62,-31 22,-7 47,-10 73,-9l0 87 -6 0c-29,0 -57,5 -84,16 -26,11 -49,26 -69,47 -20,21 -35,47 -46,78 -11,31 -17,67 -17,108l0 217 -81 0 0 -544z"/>
  <path class="fil2" d="M7153 2608c-40,0 -77,-8 -111,-23 -34,-15 -63,-35 -88,-61 -25,-26 -44,-56 -58,-90 -14,-34 -21,-70 -21,-108l0 -2c0,-39 7,-75 21,-109 14,-34 33,-65 58,-90 25,-26 54,-46 88,-62 34,-15 71,-23 111,-23 26,0 49,2 70,7 21,5 40,12 58,21 18,9 34,19 48,31 15,12 28,25 41,38l-54 57c-22,-22 -45,-42 -71,-58 -26,-16 -57,-24 -94,-24 -27,0 -53,5 -77,16 -24,11 -45,26 -62,45 -18,19 -31,41 -41,67 -10,26 -15,53 -15,83l0 2c0,29 5,57 15,83 10,26 24,48 42,67 18,19 39,34 63,45 24,11 51,16 79,16 35,0 66,-8 93,-23 27,-15 51,-35 73,-58l52 48c-27,31 -58,56 -93,76 -35,20 -78,29 -129,29z"/>
  <path class="fil2" d="M7486 1828l81 0 0 319c18,-29 42,-55 72,-75 29,-21 68,-31 115,-31 33,0 62,5 88,16 26,11 47,25 65,45 18,19 32,42 41,69 9,27 14,56 14,88l0 338 -81 0 0 -317c0,-50 -13,-90 -39,-120 -26,-29 -63,-44 -112,-44 -23,0 -45,4 -65,12 -20,8 -37,20 -52,35 -15,15 -26,33 -34,54 -8,21 -12,44 -12,69l0 311 -81 0 0 -768z"/>
 </g>
</svg>
