<?xml version="1.0" encoding="utf-8"?>
<!-- Generator: Adobe Illustrator 23.0.1, SVG Export Plug-In . SVG Version: 6.00 Build 0)  -->
<svg version="1.1" id="Layer_1" xmlns="http://www.w3.org/2000/svg" xmlns:xlink="http://www.w3.org/1999/xlink" x="0px" y="0px"
	 viewBox="0 0 160.98 56.04" style="enable-background:new 0 0 160.98 56.04;" xml:space="preserve">
<style type="text/css">
	.st0{fill:#FFFFFF;}
</style>
<g>
	<g>
		<path class="st0" d="M36.45,32.56l-3.42,0.47l7.76,7.77c0.14,0.14,0.38-0.03,0.28-0.21L36.45,32.56z"/>
		<path class="st0" d="M32.56,19.59l0.47,3.42l7.77-7.75c0.14-0.14-0.03-0.38-0.21-0.28L32.56,19.59z"/>
		<path class="st0" d="M33.04,23.01l-5.01,5.01l27.84,0.02c0.21,0,0.24-0.3,0.04-0.35L33.04,23.01z"/>
		<path class="st0" d="M23.01,23l5.01,5.01l0.02-27.84c0-0.21-0.3-0.24-0.35-0.04L23.01,23z"/>
	</g>
	<g>
		<path class="st0" d="M23.48,36.44L23,33.03l-7.77,7.75c-0.14,0.14,0.03,0.38,0.21,0.28L23.48,36.44z"/>
		<path class="st0" d="M19.59,23.47L23.01,23l-7.76-7.77c-0.14-0.14-0.38,0.03-0.28,0.21L19.59,23.47z"/>
		<path class="st0" d="M28,55.86l0.02-27.85l5.01,5.02L28.34,55.9C28.3,56.11,28,56.07,28,55.86z"/>
		<path class="st0" d="M23,33.03l5.01-5.01L0.17,27.99c-0.21,0-0.24,0.3-0.04,0.35L23,33.03z"/>
	</g>
	<g>
		<path class="st0" d="M24.55,48.57c-9.41-1.13-16.89-8.59-18.06-17.99l-0.9-0.23c1.09,10.06,9.12,18.07,19.19,19.12L24.55,48.57z"
			/>
		<path class="st0" d="M6.48,25.5c1.15-9.4,8.61-16.87,18-18.03l0.23-0.9C14.66,7.65,6.65,15.67,5.58,25.73L6.48,25.5z"/>
		<path class="st0" d="M31.49,7.47c9.41,1.13,16.89,8.59,18.06,17.99l0.9,0.23C49.36,15.63,41.34,7.62,31.26,6.57L31.49,7.47z"/>
		<path class="st0" d="M49.56,30.54c-1.15,9.4-8.61,16.87-18,18.03l-0.23,0.9c10.06-1.08,18.06-9.1,19.13-19.16L49.56,30.54z"/>
	</g>
	<g>
		<path class="st0" d="M59.69,11.66h1.98l6.32,9.47l6.32-9.47h1.98v17.35h-1.96V14.96l-6.32,9.3h-0.1l-6.32-9.27v14.03h-1.91V11.66z
			"/>
		<path class="st0" d="M82.02,23.38c0.07,0.68,0.23,1.28,0.5,1.81c0.26,0.53,0.6,0.98,1.02,1.34c0.41,0.36,0.88,0.64,1.39,0.83
			c0.51,0.19,1.05,0.29,1.61,0.29c0.89,0,1.66-0.16,2.29-0.5c0.64-0.33,1.22-0.77,1.75-1.31l1.19,1.07
			c-0.64,0.73-1.38,1.31-2.21,1.75c-0.83,0.44-1.85,0.66-3.07,0.66c-0.88,0-1.7-0.16-2.48-0.48c-0.78-0.32-1.45-0.78-2.03-1.36
			c-0.58-0.59-1.04-1.29-1.38-2.12c-0.34-0.83-0.51-1.74-0.51-2.73c0-0.93,0.15-1.8,0.46-2.62c0.31-0.82,0.73-1.53,1.28-2.13
			c0.55-0.6,1.19-1.08,1.95-1.43c0.75-0.35,1.57-0.52,2.47-0.52c0.94,0,1.78,0.18,2.53,0.53c0.74,0.36,1.37,0.84,1.88,1.45
			c0.51,0.61,0.9,1.33,1.17,2.16c0.26,0.83,0.4,1.71,0.4,2.65c0,0.08,0,0.18,0,0.29c0,0.11-0.01,0.24-0.02,0.38H82.02z M90.28,21.82
			c-0.05-0.57-0.17-1.12-0.37-1.64c-0.2-0.52-0.47-0.97-0.81-1.37c-0.34-0.39-0.75-0.71-1.24-0.94c-0.49-0.23-1.05-0.34-1.67-0.34
			c-0.55,0-1.06,0.11-1.54,0.32c-0.48,0.21-0.9,0.51-1.26,0.9c-0.36,0.39-0.67,0.84-0.9,1.37c-0.24,0.53-0.39,1.09-0.46,1.7H90.28z"
			/>
		<path class="st0" d="M95.56,16.19h1.91v3.35c0.23-0.53,0.52-1.02,0.87-1.46c0.35-0.45,0.74-0.83,1.19-1.15s0.93-0.57,1.46-0.73
			c0.53-0.16,1.1-0.24,1.71-0.22v2.06h-0.15c-0.69,0-1.35,0.12-1.97,0.37c-0.62,0.25-1.16,0.62-1.62,1.12
			c-0.46,0.5-0.83,1.11-1.09,1.85c-0.26,0.74-0.4,1.58-0.4,2.54v5.11h-1.91V16.19z"/>
		<path class="st0" d="M105.65,11.29h2.18v2.11h-2.18V11.29z M105.77,16.19h1.91v12.82h-1.91V16.19z"/>
		<path class="st0" d="M117.5,29.28c-0.78,0-1.53-0.15-2.26-0.45c-0.73-0.3-1.38-0.73-1.96-1.3c-0.58-0.57-1.04-1.26-1.39-2.08
			c-0.35-0.82-0.52-1.76-0.52-2.81v-0.05c0-1.04,0.17-1.97,0.52-2.8c0.35-0.83,0.81-1.52,1.39-2.09c0.58-0.57,1.23-1.01,1.96-1.31
			c0.73-0.31,1.48-0.46,2.26-0.46c0.59,0,1.14,0.07,1.64,0.22c0.5,0.15,0.94,0.35,1.34,0.59c0.4,0.25,0.76,0.54,1.08,0.87
			c0.32,0.33,0.61,0.68,0.86,1.04v-7.73h1.91v18.1h-1.91v-2.58c-0.26,0.38-0.56,0.74-0.88,1.09c-0.32,0.35-0.68,0.65-1.08,0.92
			c-0.4,0.26-0.84,0.47-1.33,0.62C118.63,29.21,118.09,29.28,117.5,29.28z M117.84,27.57c0.59,0,1.17-0.12,1.72-0.36
			c0.55-0.24,1.05-0.58,1.49-1.02c0.44-0.44,0.78-0.96,1.04-1.56c0.26-0.6,0.38-1.28,0.38-2.02v-0.05c0-0.74-0.13-1.42-0.38-2.02
			c-0.26-0.6-0.6-1.12-1.04-1.55c-0.44-0.43-0.93-0.76-1.49-1c-0.55-0.24-1.13-0.36-1.72-0.36c-0.63,0-1.21,0.11-1.76,0.33
			c-0.55,0.22-1.02,0.55-1.43,0.97c-0.41,0.42-0.73,0.94-0.97,1.55c-0.24,0.61-0.36,1.31-0.36,2.08v0.05c0,0.76,0.12,1.45,0.36,2.06
			c0.24,0.61,0.57,1.13,0.98,1.56c0.41,0.43,0.89,0.76,1.44,0.99C116.65,27.46,117.23,27.57,117.84,27.57z"/>
		<path class="st0" d="M128.63,11.29h2.18v2.11h-2.18V11.29z M128.75,16.19h1.91v12.82h-1.91V16.19z"/>
		<path class="st0" d="M136.24,23.38c0.07,0.68,0.23,1.28,0.5,1.81c0.26,0.53,0.6,0.98,1.02,1.34c0.41,0.36,0.88,0.64,1.39,0.83
			c0.51,0.19,1.05,0.29,1.61,0.29c0.89,0,1.66-0.16,2.29-0.5c0.64-0.33,1.22-0.77,1.75-1.31l1.19,1.07
			c-0.64,0.73-1.38,1.31-2.21,1.75c-0.83,0.44-1.85,0.66-3.07,0.66c-0.88,0-1.7-0.16-2.48-0.48c-0.78-0.32-1.45-0.78-2.03-1.36
			c-0.58-0.59-1.04-1.29-1.38-2.12c-0.34-0.83-0.51-1.74-0.51-2.73c0-0.93,0.15-1.8,0.46-2.62c0.31-0.82,0.73-1.53,1.28-2.13
			c0.55-0.6,1.19-1.08,1.95-1.43c0.75-0.35,1.57-0.52,2.47-0.52c0.94,0,1.78,0.18,2.53,0.53c0.74,0.36,1.37,0.84,1.88,1.45
			c0.51,0.61,0.9,1.33,1.17,2.16c0.26,0.83,0.4,1.71,0.4,2.65c0,0.08,0,0.18,0,0.29c0,0.11-0.01,0.24-0.02,0.38H136.24z
			 M144.49,21.82c-0.05-0.57-0.17-1.12-0.37-1.64c-0.2-0.52-0.47-0.97-0.81-1.37c-0.34-0.39-0.75-0.71-1.24-0.94
			c-0.49-0.23-1.05-0.34-1.67-0.34c-0.55,0-1.06,0.11-1.54,0.32c-0.48,0.21-0.9,0.51-1.26,0.9c-0.36,0.39-0.67,0.84-0.9,1.37
			c-0.24,0.53-0.39,1.09-0.46,1.7H144.49z"/>
		<path class="st0" d="M149.77,16.19h1.91v2.23c0.43-0.69,0.99-1.28,1.69-1.77c0.69-0.49,1.59-0.73,2.7-0.73
			c0.78,0,1.47,0.12,2.07,0.37c0.6,0.25,1.12,0.6,1.54,1.05c0.42,0.45,0.74,1,0.97,1.62c0.22,0.63,0.33,1.32,0.33,2.08v7.96h-1.91
			v-7.47c0-1.19-0.31-2.13-0.92-2.82c-0.61-0.69-1.49-1.04-2.63-1.04c-0.55,0-1.05,0.09-1.52,0.28c-0.47,0.19-0.88,0.46-1.23,0.82
			c-0.35,0.35-0.62,0.78-0.81,1.27c-0.19,0.49-0.28,1.04-0.28,1.63v7.32h-1.91V16.19z"/>
	</g>
	<g>
		<path class="st0" d="M59.69,31.93h5.58c0.8,0,1.52,0.11,2.14,0.34c0.62,0.23,1.14,0.55,1.55,0.95c0.32,0.32,0.57,0.7,0.74,1.13
			c0.17,0.43,0.26,0.91,0.26,1.43v0.04c0,0.54-0.09,1.03-0.26,1.46c-0.17,0.43-0.42,0.8-0.73,1.11c-0.32,0.32-0.69,0.57-1.12,0.78
			c-0.43,0.2-0.9,0.35-1.41,0.44l3.99,5.3h-1.8l-3.76-5.04h-0.04h-3.67v5.04h-1.46V31.93z M65.15,38.54c0.48,0,0.93-0.06,1.34-0.19
			c0.41-0.12,0.76-0.3,1.06-0.53c0.3-0.23,0.53-0.51,0.7-0.83c0.17-0.33,0.25-0.7,0.25-1.12v-0.04c0-0.8-0.29-1.43-0.87-1.88
			c-0.58-0.45-1.4-0.68-2.45-0.68h-4.01v5.26H65.15z"/>
		<path class="st0" d="M73.11,40.69c0.05,0.51,0.17,0.96,0.37,1.35c0.2,0.4,0.45,0.73,0.76,1c0.31,0.27,0.65,0.48,1.04,0.62
			c0.38,0.14,0.78,0.21,1.2,0.21c0.67,0,1.24-0.12,1.71-0.37c0.48-0.25,0.91-0.57,1.31-0.98l0.89,0.8
			c-0.48,0.54-1.03,0.98-1.65,1.31c-0.62,0.33-1.38,0.49-2.3,0.49c-0.66,0-1.27-0.12-1.85-0.36c-0.58-0.24-1.09-0.58-1.52-1.02
			c-0.43-0.44-0.78-0.97-1.03-1.58c-0.25-0.62-0.38-1.3-0.38-2.04c0-0.69,0.11-1.34,0.34-1.96c0.23-0.61,0.55-1.14,0.95-1.59
			c0.41-0.45,0.89-0.81,1.46-1.07c0.56-0.26,1.18-0.39,1.84-0.39c0.7,0,1.33,0.13,1.89,0.4c0.56,0.27,1.03,0.63,1.41,1.08
			c0.38,0.46,0.67,0.99,0.87,1.61c0.2,0.62,0.3,1.28,0.3,1.98c0,0.06,0,0.13,0,0.21c0,0.08-0.01,0.18-0.02,0.29H73.11z M79.28,39.53
			c-0.04-0.43-0.13-0.84-0.28-1.23c-0.15-0.39-0.35-0.73-0.6-1.02c-0.25-0.29-0.56-0.53-0.93-0.7c-0.36-0.17-0.78-0.26-1.25-0.26
			c-0.41,0-0.79,0.08-1.15,0.24c-0.36,0.16-0.67,0.38-0.95,0.67c-0.27,0.29-0.5,0.63-0.68,1.02c-0.18,0.39-0.29,0.82-0.34,1.27
			H79.28z"/>
		<path class="st0" d="M86.4,45.09c-0.69,0-1.39-0.13-2.09-0.38c-0.7-0.25-1.33-0.6-1.87-1.03l0.72-1.02
			c0.52,0.4,1.06,0.7,1.62,0.91c0.56,0.21,1.13,0.32,1.7,0.32c0.58,0,1.06-0.14,1.43-0.41c0.37-0.27,0.56-0.64,0.56-1.11v-0.04
			c0-0.23-0.06-0.44-0.19-0.61c-0.13-0.17-0.31-0.32-0.53-0.45c-0.22-0.13-0.48-0.24-0.77-0.34c-0.29-0.1-0.59-0.19-0.9-0.28
			c-0.37-0.11-0.74-0.23-1.12-0.36c-0.38-0.13-0.72-0.29-1.02-0.49c-0.3-0.2-0.55-0.44-0.74-0.74c-0.19-0.3-0.29-0.67-0.29-1.11
			v-0.04c0-0.41,0.08-0.78,0.24-1.12c0.16-0.34,0.39-0.63,0.68-0.87c0.29-0.24,0.64-0.43,1.04-0.56c0.4-0.13,0.84-0.19,1.31-0.19
			c0.59,0,1.19,0.1,1.8,0.29c0.61,0.19,1.16,0.45,1.65,0.77l-0.65,1.08c-0.44-0.28-0.91-0.51-1.4-0.68
			c-0.49-0.17-0.97-0.25-1.44-0.25c-0.57,0-1.02,0.13-1.35,0.4c-0.33,0.27-0.5,0.6-0.5,0.99v0.04c0,0.22,0.07,0.42,0.2,0.58
			c0.14,0.17,0.32,0.31,0.55,0.44c0.23,0.12,0.49,0.24,0.79,0.33c0.3,0.1,0.61,0.2,0.93,0.3c0.37,0.11,0.74,0.23,1.1,0.37
			c0.36,0.14,0.7,0.31,0.99,0.52c0.3,0.21,0.53,0.46,0.71,0.76c0.18,0.3,0.27,0.66,0.27,1.09v0.04c0,0.46-0.09,0.86-0.27,1.21
			c-0.18,0.35-0.42,0.65-0.72,0.9c-0.3,0.25-0.66,0.44-1.08,0.57C87.33,45.02,86.88,45.09,86.4,45.09z"/>
		<path class="st0" d="M93.12,40.69c0.05,0.51,0.17,0.96,0.37,1.35c0.2,0.4,0.45,0.73,0.76,1c0.31,0.27,0.65,0.48,1.04,0.62
			c0.38,0.14,0.78,0.21,1.2,0.21c0.67,0,1.24-0.12,1.71-0.37c0.48-0.25,0.91-0.57,1.31-0.98l0.89,0.8
			c-0.48,0.54-1.03,0.98-1.65,1.31c-0.62,0.33-1.38,0.49-2.3,0.49c-0.66,0-1.27-0.12-1.85-0.36c-0.58-0.24-1.09-0.58-1.52-1.02
			c-0.43-0.44-0.78-0.97-1.03-1.58c-0.25-0.62-0.38-1.3-0.38-2.04c0-0.69,0.11-1.34,0.34-1.96c0.23-0.61,0.55-1.14,0.95-1.59
			c0.41-0.45,0.89-0.81,1.46-1.07c0.56-0.26,1.18-0.39,1.84-0.39c0.7,0,1.33,0.13,1.89,0.4c0.56,0.27,1.03,0.63,1.41,1.08
			c0.38,0.46,0.67,0.99,0.87,1.61c0.2,0.62,0.3,1.28,0.3,1.98c0,0.06,0,0.13,0,0.21c0,0.08-0.01,0.18-0.02,0.29H93.12z M99.29,39.53
			c-0.04-0.43-0.13-0.84-0.28-1.23c-0.15-0.39-0.35-0.73-0.6-1.02c-0.25-0.29-0.56-0.53-0.93-0.7c-0.36-0.17-0.78-0.26-1.25-0.26
			c-0.41,0-0.79,0.08-1.15,0.24c-0.36,0.16-0.67,0.38-0.95,0.67c-0.27,0.29-0.5,0.63-0.68,1.02c-0.18,0.39-0.29,0.82-0.34,1.27
			H99.29z"/>
		<path class="st0" d="M106.09,45.11c-0.44,0-0.88-0.06-1.32-0.19c-0.43-0.12-0.82-0.31-1.15-0.57c-0.33-0.25-0.6-0.57-0.81-0.94
			c-0.2-0.37-0.31-0.8-0.31-1.3v-0.04c0-0.52,0.1-0.97,0.3-1.36c0.2-0.39,0.48-0.71,0.84-0.97c0.36-0.26,0.8-0.46,1.3-0.59
			c0.5-0.14,1.05-0.2,1.66-0.2c0.62,0,1.15,0.04,1.6,0.11c0.45,0.07,0.89,0.17,1.33,0.3v-0.29c0-0.85-0.25-1.49-0.74-1.92
			c-0.49-0.44-1.19-0.65-2.09-0.65c-0.57,0-1.08,0.06-1.55,0.19c-0.46,0.12-0.92,0.29-1.36,0.5L103.37,36
			c0.53-0.25,1.07-0.45,1.61-0.6c0.54-0.15,1.17-0.23,1.87-0.23c1.36,0,2.39,0.35,3.1,1.06c0.67,0.67,1,1.61,1,2.82v5.86h-1.41
			v-1.43c-0.33,0.43-0.78,0.81-1.34,1.14C107.64,44.94,106.93,45.11,106.09,45.11z M106.38,43.94c0.44,0,0.86-0.06,1.24-0.18
			c0.38-0.12,0.72-0.3,1.01-0.53c0.29-0.23,0.52-0.5,0.68-0.81c0.17-0.31,0.25-0.66,0.25-1.04v-0.89c-0.36-0.1-0.76-0.19-1.22-0.28
			c-0.46-0.09-0.98-0.13-1.57-0.13c-0.89,0-1.57,0.18-2.06,0.53c-0.49,0.35-0.73,0.81-0.73,1.39v0.04c0,0.3,0.06,0.56,0.19,0.8
			c0.13,0.24,0.3,0.44,0.53,0.6c0.22,0.16,0.48,0.28,0.77,0.37C105.76,43.89,106.06,43.94,106.38,43.94z"/>
		<path class="st0" d="M113.97,35.32h1.43v2.5c0.17-0.4,0.39-0.76,0.65-1.09c0.26-0.33,0.56-0.62,0.89-0.86
			c0.33-0.24,0.7-0.42,1.09-0.55c0.4-0.12,0.82-0.18,1.28-0.17v1.54h-0.11c-0.52,0-1.01,0.09-1.47,0.28
			c-0.46,0.19-0.87,0.46-1.21,0.83c-0.35,0.37-0.62,0.83-0.82,1.38c-0.2,0.55-0.3,1.18-0.3,1.9v3.82h-1.43V35.32z"/>
		<path class="st0" d="M125.21,45.12c-0.7,0-1.36-0.13-1.96-0.4c-0.6-0.27-1.12-0.62-1.56-1.08c-0.44-0.45-0.78-0.98-1.03-1.58
			c-0.25-0.61-0.37-1.24-0.37-1.91v-0.04c0-0.68,0.12-1.32,0.37-1.93c0.25-0.61,0.59-1.14,1.03-1.59c0.44-0.46,0.96-0.82,1.56-1.08
			c0.6-0.27,1.25-0.4,1.96-0.4c0.46,0,0.87,0.04,1.24,0.13c0.37,0.09,0.71,0.21,1.02,0.36c0.31,0.15,0.59,0.34,0.85,0.55
			c0.26,0.21,0.5,0.43,0.72,0.67l-0.95,1c-0.38-0.4-0.8-0.74-1.25-1.02c-0.45-0.28-1-0.43-1.66-0.43c-0.48,0-0.93,0.1-1.35,0.29
			c-0.42,0.19-0.78,0.45-1.09,0.79c-0.31,0.33-0.55,0.73-0.72,1.18c-0.17,0.45-0.26,0.94-0.26,1.46v0.04c0,0.52,0.09,1,0.27,1.46
			c0.18,0.45,0.43,0.85,0.74,1.19c0.32,0.34,0.69,0.61,1.11,0.8c0.43,0.19,0.89,0.29,1.4,0.29c0.62,0,1.16-0.14,1.64-0.41
			c0.48-0.27,0.91-0.61,1.29-1.02l0.91,0.85c-0.48,0.54-1.03,0.99-1.64,1.33C126.87,44.95,126.11,45.12,125.21,45.12z"/>
		<path class="st0" d="M131.08,31.37h1.43v5.62c0.32-0.52,0.74-0.96,1.26-1.33c0.52-0.36,1.19-0.55,2.02-0.55
			c0.58,0,1.1,0.09,1.55,0.28c0.45,0.19,0.83,0.45,1.15,0.79c0.32,0.34,0.56,0.74,0.72,1.21c0.17,0.47,0.25,0.99,0.25,1.56v5.95
			h-1.43v-5.59c0-0.89-0.23-1.59-0.69-2.11c-0.46-0.52-1.11-0.78-1.96-0.78c-0.41,0-0.79,0.07-1.14,0.21
			c-0.35,0.14-0.66,0.35-0.92,0.61c-0.26,0.27-0.46,0.58-0.6,0.95c-0.14,0.37-0.21,0.78-0.21,1.22v5.47h-1.43V31.37z"/>
	</g>
</g>
</svg>
