<?xml version="1.0" encoding="utf-8"?>
<!-- Generator: Adobe Illustrator 23.0.3, SVG Export Plug-In . SVG Version: 6.00 Build 0)  -->
<svg version="1.1" id="Layer_1" xmlns="http://www.w3.org/2000/svg" xmlns:xlink="http://www.w3.org/1999/xlink" x="0px" y="0px"
	 viewBox="0 0 93 93" style="enable-background:new 0 0 93 93;" xml:space="preserve" width="91px" height="91px">
<style type="text/css">
	.st0{fill:#75757D;}
</style>
<g>
	<g>
		<g>
			<path class="st0" d="M91.93,43.96C90.52,18.86,69.04-0.35,43.95,1.05C18.86,2.46-0.34,23.94,1.07,49.04
				c1.41,25.1,22.89,44.31,47.98,42.91C74.14,90.54,93.34,69.06,91.93,43.96z M48.97,88.56C25.81,89.85,5.98,72.12,4.68,48.95
				C3.38,25.78,21.1,5.94,44.26,4.65c23.16-1.3,42.99,16.44,44.29,39.61C89.85,67.43,72.13,87.26,48.97,88.56z M28.57,39.75
				c3.32,0,6.18-1.94,7.54-4.75c-1.1-1.88-1.74-4.08-1.74-6.42c0-1.01,0.12-1.99,0.34-2.93c-1.53-1.66-3.71-2.71-6.14-2.71
				c-4.62,0-8.37,3.76-8.37,8.41C20.2,35.99,23.95,39.75,28.57,39.75z M47,39.14c5.81,0,10.52-4.73,10.52-10.56
				S52.81,18.01,47,18.01c-5.81,0-10.52,4.73-10.52,10.57S41.19,39.14,47,39.14z M65.43,39.75c4.62,0,8.37-3.76,8.37-8.4
				c0-4.64-3.75-8.41-8.37-8.41c-2.43,0-4.61,1.05-6.14,2.71c0.22,0.94,0.34,1.92,0.34,2.93c0,2.34-0.63,4.53-1.74,6.42
				C59.25,37.81,62.11,39.75,65.43,39.75z M52.37,40.48c-1.54,0.79-3.28,1.24-5.13,1.24c-1.84,0-3.58-0.45-5.12-1.23
				c-12.65,1.28-14.94,7.5-14.94,14.24v6.37c1.08,0.79,2.37,1.52,3.85,2.16c-0.01,0.22-0.02,0.45-0.02,0.67
				c0,8.87,7.16,16.06,15.98,16.06c8.83,0,15.98-7.19,15.98-16.06c0-0.15,0-0.31-0.01-0.46c1.45-0.59,2.75-1.27,3.84-2.01v-6.73
				C66.82,47.98,65.19,41.74,52.37,40.48z M47,77.39c-7.3,0-13.24-5.87-13.4-13.16c0-0.1,0-0.2,0-0.3c0-1.23,0.16-2.42,0.47-3.55
				c0.13-0.46,0.27-0.91,0.44-1.35c1.95-5.01,6.81-8.56,12.49-8.56c6.02,0,11.12,3.99,12.81,9.48c0.39,1.26,0.59,2.6,0.59,3.98
				C60.4,71.37,54.4,77.39,47,77.39z M69.51,40.82c-1.22,0.63-2.61,0.99-4.08,0.99c-0.85,0-1.67-0.12-2.45-0.35
				c5.06,3.22,5.95,8.33,5.95,13.27v6.41c2.1-0.18,4.07-0.51,5.86-0.99l1.1-6.74v6.42c2.01-0.62,3.75-1.41,5.11-2.33v-5.36
				C81.01,46.78,79.72,41.82,69.51,40.82z M32.64,40.82C32.64,40.82,32.64,40.82,32.64,40.82c-1.23,0.63-2.61,0.98-4.07,0.98
				c-1.47,0-2.86-0.36-4.08-0.99c-10.2,1-11.5,5.96-11.5,11.34v5.36c1.36,0.92,3.1,1.71,5.11,2.33v-6.42l1.1,6.74
				c1.78,0.47,3.75,0.81,5.84,0.99v-6.41c0-2.35,0.25-5.03,1.37-7.52C27.48,44.77,29.37,42.49,32.64,40.82z M51.08,57.73
				c-1.95,0-3.59,1.33-4.08,3.13c-0.49-1.8-2.13-3.13-4.08-3.13c-2.34,0-4.23,1.9-4.23,4.25c0,5.25,8.31,10.47,8.31,10.47
				s8.31-5.22,8.31-10.47C55.31,59.63,53.42,57.73,51.08,57.73z"/>
		</g>
	</g>
</g>
</svg>
