<svg 
 xmlns="http://www.w3.org/2000/svg"
 xmlns:xlink="http://www.w3.org/1999/xlink"
 width="30px" height="29px">
<path fill-rule="evenodd"  fill="rgb(68, 115, 185)"
 d="M15.289,28.999 C7.177,28.999 0.577,22.495 0.577,14.500 C0.577,6.504 7.177,-0.000 15.289,-0.000 C23.401,-0.000 30.000,6.504 30.000,14.500 C30.000,22.495 23.401,28.999 15.289,28.999 ZM15.289,1.161 C7.826,1.161 1.755,7.145 1.755,14.500 C1.755,21.854 7.826,27.838 15.289,27.838 C22.751,27.838 28.822,21.854 28.822,14.500 C28.822,7.145 22.751,1.161 15.289,1.161 ZM13.750,18.984 C9.782,17.121 9.971,13.843 9.971,13.843 L8.345,12.949 L9.971,12.390 L9.972,12.390 C9.982,11.010 11.128,9.894 12.541,9.894 C13.950,9.894 15.092,11.003 15.110,12.377 C15.611,12.254 16.279,12.025 17.132,11.602 C19.017,10.667 19.812,9.178 19.812,9.178 C19.812,9.178 20.299,10.246 20.486,10.967 C21.101,13.350 20.182,15.371 19.274,16.120 C18.678,16.611 18.189,16.766 17.942,16.815 C19.401,17.832 21.499,18.127 21.499,18.127 C21.499,18.127 17.719,20.846 13.750,18.984 ZM11.925,11.443 C11.187,11.443 11.187,12.571 11.925,12.571 C12.664,12.571 12.664,11.443 11.925,11.443 Z"/>
</svg>