<svg 
 xmlns="http://www.w3.org/2000/svg"
 xmlns:xlink="http://www.w3.org/1999/xlink"
 width="77px" height="76px">
<path fill-rule="evenodd"  fill="rgb(217, 82, 33)"
 d="M38.377,75.997 C17.216,75.997 0.000,58.952 0.000,37.999 C0.000,17.046 17.216,-0.000 38.377,-0.000 C59.539,-0.000 76.756,17.046 76.756,37.999 C76.756,58.952 59.539,75.997 38.377,75.997 ZM38.377,3.042 C18.911,3.042 3.073,18.724 3.073,37.999 C3.073,57.274 18.911,72.955 38.377,72.955 C57.844,72.955 73.682,57.274 73.682,37.999 C73.682,18.724 57.844,3.042 38.377,3.042 ZM56.029,50.571 C55.557,51.785 54.924,52.816 53.896,53.843 C52.867,54.870 51.835,55.501 50.619,55.973 C49.442,56.430 48.097,56.742 46.128,56.832 C44.155,56.922 43.525,56.943 38.500,56.943 C33.476,56.943 32.846,56.922 30.872,56.832 C28.903,56.742 27.558,56.430 26.381,55.973 C25.165,55.501 24.133,54.870 23.105,53.843 C22.076,52.816 21.444,51.785 20.971,50.571 C20.513,49.396 20.201,48.053 20.111,46.087 C20.021,44.116 19.999,43.487 19.999,38.470 C19.999,33.453 20.021,32.824 20.111,30.854 C20.201,28.888 20.513,27.545 20.971,26.370 C21.444,25.155 22.076,24.125 23.105,23.098 C24.133,22.071 25.165,21.439 26.381,20.967 C27.558,20.511 28.903,20.198 30.872,20.109 C32.846,20.019 33.476,19.997 38.500,19.997 C43.525,19.997 44.155,20.019 46.128,20.109 C48.097,20.198 49.442,20.511 50.619,20.967 C51.835,21.439 52.867,22.071 53.896,23.098 C54.924,24.125 55.557,25.155 56.029,26.370 C56.487,27.545 56.800,28.888 56.889,30.854 C56.979,32.824 57.001,33.453 57.001,38.470 C57.001,43.487 56.979,44.116 56.889,46.087 C56.800,48.053 56.487,49.396 56.029,50.571 ZM53.559,31.006 C53.477,29.205 53.176,28.226 52.922,27.575 C52.587,26.713 52.186,26.098 51.538,25.451 C50.891,24.805 50.275,24.405 49.411,24.070 C48.759,23.817 47.780,23.516 45.976,23.433 C44.025,23.345 43.440,23.326 38.500,23.326 C33.560,23.326 32.975,23.345 31.024,23.433 C29.221,23.516 28.241,23.817 27.589,24.070 C26.725,24.405 26.109,24.805 25.462,25.451 C24.814,26.098 24.413,26.713 24.078,27.575 C23.824,28.226 23.523,29.205 23.441,31.006 C23.352,32.954 23.333,33.538 23.333,38.470 C23.333,43.403 23.352,43.987 23.441,45.935 C23.523,47.736 23.824,48.714 24.078,49.365 C24.413,50.227 24.814,50.843 25.462,51.489 C26.109,52.136 26.725,52.536 27.589,52.871 C28.241,53.124 29.221,53.425 31.024,53.507 C32.975,53.596 33.560,53.615 38.500,53.615 C43.440,53.615 44.025,53.596 45.976,53.507 C47.780,53.425 48.759,53.124 49.411,52.871 C50.275,52.536 50.891,52.136 51.538,51.489 C52.186,50.843 52.587,50.227 52.922,49.365 C53.176,48.714 53.477,47.736 53.559,45.935 C53.648,43.987 53.667,43.403 53.667,38.470 C53.667,33.538 53.648,32.954 53.559,31.006 ZM48.376,30.826 C47.150,30.826 46.156,29.834 46.156,28.609 C46.156,27.385 47.150,26.393 48.376,26.393 C49.602,26.393 50.596,27.385 50.596,28.609 C50.596,29.834 49.602,30.826 48.376,30.826 ZM38.500,47.956 C33.253,47.956 29.000,43.709 29.000,38.470 C29.000,33.231 33.253,28.984 38.500,28.984 C43.747,28.984 48.000,33.231 48.000,38.470 C48.000,43.709 43.747,47.956 38.500,47.956 ZM38.500,32.313 C35.094,32.313 32.333,35.069 32.333,38.470 C32.333,41.871 35.094,44.628 38.500,44.628 C41.906,44.628 44.667,41.871 44.667,38.470 C44.667,35.069 41.906,32.313 38.500,32.313 Z"/>
</svg>