<svg 
 xmlns="http://www.w3.org/2000/svg"
 xmlns:xlink="http://www.w3.org/1999/xlink"
 width="127px" height="127px">
<path fill-rule="evenodd"  fill="rgb(255, 255, 255)"
 d="M67.055,126.884 C32.065,128.841 2.108,102.050 0.145,67.044 C-1.819,32.038 24.955,2.073 59.945,0.116 C94.935,-1.841 124.892,24.950 126.855,59.957 C128.819,94.962 102.045,124.927 67.055,126.884 ZM122.147,60.372 C120.334,28.056 92.680,3.323 60.378,5.130 C28.077,6.937 3.360,34.599 5.173,66.915 C6.985,99.230 34.640,123.963 66.941,122.156 C99.243,120.350 123.959,92.688 122.147,60.372 ZM81.328,87.774 C80.012,87.847 79.470,98.485 79.801,113.789 C75.545,115.045 71.079,115.833 66.457,116.092 L66.453,116.092 C59.110,116.502 52.008,115.541 45.394,113.431 C44.938,102.129 43.926,78.590 41.319,73.007 C38.280,66.501 31.147,61.507 26.590,44.691 C26.048,42.692 25.934,40.601 26.286,38.569 C26.286,38.569 29.857,26.707 37.866,36.446 C39.423,39.208 39.572,41.857 39.572,41.857 C39.572,41.857 41.657,54.240 51.866,62.696 C62.075,71.152 77.016,71.011 77.016,71.011 C77.016,71.011 87.411,68.875 92.955,84.372 C94.151,87.716 95.293,94.948 96.212,105.989 C92.907,108.251 89.353,110.185 85.596,111.741 C84.242,97.428 82.594,87.703 81.328,87.774 ZM67.222,63.705 C58.619,64.186 51.230,57.561 50.746,48.935 C50.263,40.312 56.865,32.905 65.467,32.424 C74.065,31.943 81.455,38.567 81.938,47.190 C82.422,55.816 75.820,63.224 67.222,63.705 ZM75.772,47.535 C75.480,42.321 71.013,38.317 65.814,38.607 C60.611,38.898 56.620,43.376 56.912,48.590 C57.205,53.803 61.671,57.812 66.875,57.521 C72.074,57.229 76.065,52.749 75.772,47.535 Z"/>
</svg>