<svg 
 xmlns="http://www.w3.org/2000/svg"
 xmlns:xlink="http://www.w3.org/1999/xlink"
 width="30px" height="29px">
<path fill-rule="evenodd"  fill="rgb(217, 82, 33)"
 d="M14.711,28.999 C6.599,28.999 0.000,22.495 0.000,14.500 C0.000,6.504 6.599,-0.000 14.711,-0.000 C22.823,-0.000 29.423,6.504 29.423,14.500 C29.423,22.495 22.823,28.999 14.711,28.999 ZM14.711,1.161 C7.249,1.161 1.178,7.145 1.178,14.500 C1.178,21.854 7.249,27.838 14.711,27.838 C22.174,27.838 28.245,21.854 28.245,14.500 C28.245,7.145 22.174,1.161 14.711,1.161 ZM17.275,10.506 C16.950,10.451 16.640,10.423 16.356,10.423 C15.845,10.423 15.669,10.540 15.617,10.591 C15.589,10.619 15.447,10.788 15.447,11.409 L15.447,11.783 L17.413,11.783 L17.413,14.061 L15.447,14.061 L15.447,21.075 L12.716,21.075 L12.716,14.061 L11.207,14.061 L11.207,11.783 L12.716,11.783 L12.716,11.274 C12.716,10.564 12.786,10.037 12.930,9.663 C13.136,9.138 13.497,8.711 14.004,8.392 C14.793,7.895 16.093,7.790 17.714,8.092 L18.216,8.185 L17.780,10.591 L17.275,10.506 Z"/>
</svg>