<svg 
 xmlns="http://www.w3.org/2000/svg"
 xmlns:xlink="http://www.w3.org/1999/xlink"
 width="92px" height="92px">
<path fill-rule="evenodd"  fill="rgb(31, 73, 165)"
 d="M48.558,91.593 C23.381,93.000 1.825,73.729 0.413,48.549 C-1.000,23.369 18.265,1.816 43.442,0.408 C68.619,-1.000 90.175,18.271 91.587,43.451 C93.000,68.631 73.735,90.185 48.558,91.593 ZM88.199,43.750 C86.895,20.505 66.996,2.715 43.754,4.015 C20.511,5.314 2.727,25.211 4.031,48.456 C5.335,71.701 25.234,89.491 48.476,88.191 C71.719,86.892 89.503,66.995 88.199,43.750 ZM64.970,51.183 C57.827,51.183 52.015,56.994 52.015,64.138 L49.424,64.138 C49.424,55.552 56.384,48.591 64.970,48.591 C73.557,48.591 80.517,55.552 80.517,64.138 L77.926,64.138 C77.926,56.994 72.114,51.183 64.970,51.183 ZM64.970,46.000 C59.962,46.000 55.901,41.940 55.901,36.931 C55.901,31.923 59.962,27.862 64.970,27.862 C69.979,27.862 74.039,31.923 74.039,36.931 C74.039,41.940 69.979,46.000 64.970,46.000 ZM64.970,30.292 C61.309,30.292 58.331,33.270 58.331,36.931 C58.331,40.592 61.309,43.571 64.970,43.571 C68.632,43.571 71.610,40.592 71.610,36.931 C71.610,33.270 68.632,30.292 64.970,30.292 ZM29.040,38.442 C24.787,38.420 21.507,41.655 21.501,45.897 C21.486,50.142 24.750,53.422 29.003,53.444 L44.233,53.562 L44.204,63.550 L28.980,63.436 C19.349,63.379 11.456,55.441 11.483,45.838 C11.504,36.231 19.431,28.394 29.062,28.450 L44.286,28.565 L44.264,38.557 L29.040,38.442 ZM42.697,62.214 L42.714,55.314 L35.802,55.275 L35.782,62.166 L42.697,62.214 ZM35.858,30.068 L35.838,36.959 L42.756,37.001 L42.770,30.107 L35.858,30.068 Z"/>
</svg>