<?xml version="1.0" encoding="utf-8"?>
<!-- Generator: Adobe Illustrator 23.0.1, SVG Export Plug-In . SVG Version: 6.00 Build 0)  -->
<svg version="1.1" id="Layer_1" xmlns="http://www.w3.org/2000/svg" xmlns:xlink="http://www.w3.org/1999/xlink" x="0px" y="0px"
	 viewBox="0 0 194.42 67.68" style="enable-background:new 0 0 194.42 67.68;" xml:space="preserve">
<style type="text/css">
	.st0{fill:#48484D;}
</style>
<g>
	<g>
		<path class="st0" d="M44.84,39.24l-4.07,0.56L50,49.05c0.17,0.17,0.45-0.04,0.33-0.25L44.84,39.24z"/>
		<path class="st0" d="M40.22,23.82l0.56,4.07l9.24-9.22c0.17-0.17-0.04-0.45-0.25-0.33L40.22,23.82z"/>
		<path class="st0" d="M40.78,27.88l-5.96,5.95l33.11,0.03c0.25,0,0.29-0.36,0.04-0.41L40.78,27.88z"/>
		<path class="st0" d="M28.86,27.88l5.95,5.96l0.03-33.11c0-0.25-0.36-0.29-0.41-0.04L28.86,27.88z"/>
	</g>
	<g>
		<path class="st0" d="M29.41,43.86l-0.56-4.06l-9.24,9.22c-0.17,0.17,0.04,0.45,0.25,0.33L29.41,43.86z"/>
		<path class="st0" d="M24.79,28.43l4.07-0.56l-9.23-9.25c-0.17-0.17-0.45,0.04-0.33,0.25L24.79,28.43z"/>
		<path class="st0" d="M34.79,66.95l0.02-33.12l5.96,5.97L35.2,66.99C35.15,67.24,34.79,67.2,34.79,66.95z"/>
		<path class="st0" d="M28.85,39.79l5.96-5.96L1.7,33.81c-0.25,0-0.29,0.36-0.04,0.41L28.85,39.79z"/>
	</g>
	<g>
		<path class="st0" d="M30.68,58.28c-11.19-1.35-20.09-10.22-21.47-21.4l-1.07-0.27c1.29,11.96,10.84,21.49,22.82,22.74L30.68,58.28
			z"/>
		<path class="st0" d="M9.2,30.84C10.56,19.66,19.44,10.78,30.61,9.4l0.27-1.07C18.93,9.62,9.4,19.15,8.13,31.11L9.2,30.84z"/>
		<path class="st0" d="M38.95,9.4c11.19,1.35,20.09,10.22,21.47,21.4l1.07,0.27C60.2,19.11,50.65,9.59,38.67,8.33L38.95,9.4z"/>
		<path class="st0" d="M60.43,36.84C59.07,48.02,50.19,56.9,39.02,58.28l-0.27,1.07c11.96-1.28,21.48-10.82,22.75-22.78L60.43,36.84
			z"/>
	</g>
	<g>
		<path class="st0" d="M72.47,14.38h2.36l7.52,11.26l7.52-11.26h2.36v20.64H89.9V18.3l-7.52,11.05h-0.12l-7.52-11.03v16.68h-2.27
			V14.38z"/>
		<path class="st0" d="M99.03,28.33c0.08,0.81,0.28,1.52,0.59,2.15c0.31,0.63,0.72,1.16,1.21,1.59c0.49,0.43,1.04,0.76,1.65,0.99
			c0.61,0.23,1.25,0.34,1.92,0.34c1.06,0,1.97-0.2,2.73-0.59c0.76-0.39,1.45-0.91,2.08-1.56l1.41,1.27
			c-0.77,0.87-1.64,1.56-2.62,2.08c-0.98,0.52-2.2,0.78-3.66,0.78c-1.04,0-2.02-0.19-2.95-0.57c-0.92-0.38-1.73-0.92-2.42-1.62
			c-0.69-0.7-1.23-1.54-1.64-2.52c-0.4-0.98-0.6-2.06-0.6-3.24c0-1.1,0.18-2.14,0.55-3.11c0.36-0.97,0.87-1.82,1.52-2.54
			c0.65-0.72,1.42-1.28,2.31-1.7c0.89-0.41,1.87-0.62,2.93-0.62c1.12,0,2.12,0.21,3.01,0.63c0.88,0.42,1.63,1,2.24,1.72
			c0.61,0.73,1.07,1.58,1.39,2.56c0.31,0.98,0.47,2.03,0.47,3.15c0,0.1,0,0.21,0,0.34c0,0.13-0.01,0.28-0.03,0.46H99.03z
			 M108.85,26.47c-0.06-0.68-0.21-1.33-0.44-1.95c-0.24-0.62-0.56-1.16-0.96-1.63c-0.4-0.47-0.89-0.84-1.47-1.11
			c-0.58-0.27-1.24-0.41-1.99-0.41c-0.65,0-1.26,0.13-1.83,0.38c-0.57,0.25-1.07,0.61-1.5,1.07c-0.43,0.46-0.79,1-1.08,1.63
			c-0.29,0.63-0.47,1.3-0.55,2.02H108.85z"/>
		<path class="st0" d="M115.13,19.78h2.27v3.98c0.27-0.63,0.62-1.21,1.03-1.74c0.41-0.53,0.88-0.99,1.42-1.37
			c0.53-0.38,1.11-0.67,1.74-0.87c0.63-0.2,1.31-0.28,2.03-0.27v2.45h-0.18c-0.83,0-1.61,0.15-2.34,0.44
			c-0.74,0.29-1.38,0.74-1.93,1.33c-0.55,0.59-0.98,1.32-1.3,2.2c-0.31,0.87-0.47,1.88-0.47,3.02v6.07h-2.27V19.78z"/>
		<path class="st0" d="M127.13,13.94h2.59v2.51h-2.59V13.94z M127.27,19.78h2.27v15.24h-2.27V19.78z"/>
		<path class="st0" d="M141.22,35.34c-0.92,0-1.82-0.18-2.68-0.53c-0.87-0.35-1.64-0.87-2.33-1.55c-0.69-0.68-1.24-1.5-1.65-2.48
			c-0.41-0.97-0.62-2.09-0.62-3.35v-0.06c0-1.24,0.21-2.35,0.62-3.33c0.41-0.98,0.96-1.81,1.65-2.49c0.69-0.68,1.46-1.2,2.33-1.56
			c0.86-0.36,1.76-0.55,2.68-0.55c0.71,0,1.36,0.09,1.95,0.27c0.59,0.18,1.12,0.41,1.59,0.71c0.47,0.29,0.9,0.64,1.28,1.03
			c0.38,0.39,0.72,0.81,1.02,1.24v-9.2h2.27v21.52h-2.27v-3.07c-0.31,0.45-0.66,0.88-1.05,1.3c-0.38,0.41-0.81,0.78-1.28,1.09
			c-0.47,0.31-1,0.56-1.58,0.74C142.57,35.26,141.93,35.34,141.22,35.34z M141.63,33.31c0.71,0,1.39-0.14,2.05-0.43
			c0.66-0.28,1.25-0.69,1.77-1.21c0.52-0.52,0.93-1.14,1.24-1.86c0.3-0.72,0.46-1.52,0.46-2.4v-0.06c0-0.88-0.15-1.69-0.46-2.4
			c-0.31-0.72-0.72-1.33-1.24-1.84c-0.52-0.51-1.11-0.91-1.77-1.19c-0.66-0.28-1.34-0.43-2.05-0.43c-0.75,0-1.44,0.13-2.09,0.4
			c-0.65,0.27-1.21,0.65-1.69,1.15c-0.48,0.5-0.87,1.12-1.15,1.84c-0.28,0.73-0.43,1.55-0.43,2.48v0.06c0,0.9,0.14,1.72,0.43,2.45
			c0.28,0.73,0.67,1.35,1.16,1.86c0.49,0.51,1.06,0.9,1.71,1.18C140.22,33.17,140.9,33.31,141.63,33.31z"/>
		<path class="st0" d="M154.45,13.94h2.59v2.51h-2.59V13.94z M154.6,19.78h2.27v15.24h-2.27V19.78z"/>
		<path class="st0" d="M163.5,28.33c0.08,0.81,0.28,1.52,0.59,2.15c0.31,0.63,0.72,1.16,1.21,1.59c0.49,0.43,1.04,0.76,1.65,0.99
			c0.61,0.23,1.25,0.34,1.92,0.34c1.06,0,1.97-0.2,2.73-0.59c0.76-0.39,1.45-0.91,2.08-1.56l1.41,1.27
			c-0.77,0.87-1.64,1.56-2.62,2.08c-0.98,0.52-2.2,0.78-3.66,0.78c-1.04,0-2.02-0.19-2.95-0.57c-0.92-0.38-1.73-0.92-2.42-1.62
			c-0.69-0.7-1.23-1.54-1.64-2.52c-0.4-0.98-0.6-2.06-0.6-3.24c0-1.1,0.18-2.14,0.55-3.11c0.36-0.97,0.87-1.82,1.52-2.54
			c0.65-0.72,1.42-1.28,2.31-1.7c0.89-0.41,1.87-0.62,2.93-0.62c1.12,0,2.12,0.21,3.01,0.63c0.88,0.42,1.63,1,2.24,1.72
			c0.61,0.73,1.07,1.58,1.39,2.56c0.31,0.98,0.47,2.03,0.47,3.15c0,0.1,0,0.21,0,0.34c0,0.13-0.01,0.28-0.03,0.46H163.5z
			 M173.32,26.47c-0.06-0.68-0.21-1.33-0.44-1.95c-0.24-0.62-0.56-1.16-0.96-1.63c-0.4-0.47-0.89-0.84-1.47-1.11
			c-0.58-0.27-1.24-0.41-1.99-0.41c-0.65,0-1.26,0.13-1.83,0.38c-0.57,0.25-1.07,0.61-1.5,1.07c-0.43,0.46-0.79,1-1.08,1.63
			c-0.29,0.63-0.47,1.3-0.55,2.02H173.32z"/>
		<path class="st0" d="M179.6,19.78h2.27v2.65c0.51-0.83,1.18-1.53,2-2.11c0.83-0.58,1.9-0.87,3.21-0.87c0.92,0,1.74,0.15,2.46,0.44
			c0.72,0.29,1.33,0.71,1.83,1.25c0.5,0.54,0.88,1.18,1.15,1.93c0.27,0.75,0.4,1.57,0.4,2.48v9.46h-2.27v-8.88
			c0-1.41-0.36-2.53-1.09-3.35c-0.73-0.82-1.77-1.24-3.12-1.24c-0.65,0-1.25,0.11-1.81,0.34c-0.56,0.23-1.05,0.55-1.46,0.97
			c-0.41,0.42-0.73,0.93-0.96,1.51c-0.23,0.59-0.34,1.24-0.34,1.94v8.71h-2.27V19.78z"/>
	</g>
	<g>
		<path class="st0" d="M72.47,38.49h6.63c0.96,0,1.8,0.14,2.55,0.41c0.74,0.27,1.36,0.65,1.84,1.14c0.38,0.38,0.68,0.83,0.88,1.34
			c0.21,0.51,0.31,1.08,0.31,1.7v0.04c0,0.65-0.1,1.22-0.31,1.73c-0.21,0.51-0.5,0.95-0.87,1.32c-0.37,0.37-0.82,0.68-1.33,0.93
			c-0.51,0.24-1.07,0.42-1.68,0.52l4.74,6.3H83.1l-4.47-6h-0.04h-4.36v6h-1.74V38.49z M78.97,46.36c0.57,0,1.1-0.07,1.59-0.22
			c0.49-0.15,0.91-0.36,1.26-0.63c0.35-0.27,0.63-0.6,0.83-0.99c0.2-0.39,0.3-0.83,0.3-1.33v-0.04c0-0.96-0.35-1.7-1.04-2.24
			c-0.69-0.54-1.66-0.8-2.92-0.8h-4.77v6.26H78.97z"/>
		<path class="st0" d="M88.44,48.91c0.06,0.6,0.21,1.14,0.44,1.61c0.23,0.47,0.54,0.87,0.9,1.19c0.37,0.32,0.78,0.57,1.23,0.74
			c0.46,0.17,0.93,0.25,1.43,0.25c0.79,0,1.47-0.15,2.04-0.44c0.57-0.29,1.08-0.68,1.55-1.17l1.06,0.95
			c-0.57,0.65-1.23,1.16-1.96,1.55c-0.73,0.39-1.65,0.58-2.73,0.58c-0.78,0-1.51-0.14-2.2-0.43c-0.69-0.29-1.29-0.69-1.81-1.21
			c-0.51-0.52-0.92-1.15-1.22-1.88c-0.3-0.73-0.45-1.54-0.45-2.42c0-0.82,0.14-1.6,0.41-2.33c0.27-0.73,0.65-1.36,1.14-1.9
			c0.49-0.54,1.06-0.96,1.73-1.27c0.67-0.31,1.4-0.46,2.19-0.46c0.84,0,1.59,0.16,2.25,0.47c0.66,0.32,1.22,0.75,1.68,1.29
			c0.46,0.54,0.8,1.18,1.04,1.92c0.23,0.74,0.35,1.52,0.35,2.36c0,0.07,0,0.16,0,0.25c0,0.1-0.01,0.21-0.02,0.34H88.44z
			 M95.78,47.52c-0.04-0.51-0.15-1-0.33-1.46c-0.18-0.46-0.42-0.87-0.72-1.22c-0.3-0.35-0.67-0.63-1.1-0.83
			c-0.43-0.2-0.93-0.31-1.49-0.31c-0.49,0-0.94,0.09-1.37,0.28c-0.43,0.19-0.8,0.46-1.12,0.8c-0.32,0.34-0.59,0.75-0.8,1.22
			c-0.21,0.47-0.35,0.97-0.41,1.51H95.78z"/>
		<path class="st0" d="M104.24,54.14c-0.82,0-1.65-0.15-2.49-0.45c-0.84-0.3-1.58-0.71-2.23-1.22l0.86-1.21
			c0.62,0.47,1.26,0.83,1.93,1.08c0.67,0.25,1.34,0.37,2.02,0.37c0.69,0,1.26-0.16,1.7-0.48c0.44-0.32,0.66-0.76,0.66-1.32v-0.04
			c0-0.28-0.08-0.52-0.23-0.73c-0.15-0.21-0.36-0.39-0.63-0.54c-0.26-0.15-0.57-0.29-0.91-0.41c-0.35-0.12-0.7-0.23-1.07-0.33
			c-0.44-0.13-0.89-0.28-1.33-0.43c-0.45-0.15-0.85-0.35-1.21-0.58c-0.36-0.23-0.65-0.53-0.88-0.88c-0.23-0.35-0.34-0.79-0.34-1.32
			v-0.04c0-0.49,0.1-0.93,0.29-1.33c0.19-0.4,0.46-0.75,0.8-1.04c0.35-0.29,0.76-0.51,1.23-0.66s1-0.23,1.55-0.23
			c0.71,0,1.42,0.11,2.14,0.34c0.72,0.23,1.37,0.53,1.96,0.91l-0.77,1.28c-0.53-0.34-1.08-0.61-1.66-0.8
			c-0.58-0.2-1.15-0.3-1.71-0.3c-0.68,0-1.21,0.16-1.61,0.47c-0.4,0.32-0.6,0.71-0.6,1.18v0.04c0,0.26,0.08,0.5,0.24,0.69
			c0.16,0.2,0.38,0.37,0.65,0.52c0.27,0.15,0.58,0.28,0.94,0.4c0.35,0.12,0.72,0.24,1.1,0.35c0.44,0.13,0.88,0.28,1.31,0.44
			c0.43,0.16,0.83,0.37,1.18,0.62c0.35,0.25,0.64,0.55,0.85,0.9c0.21,0.35,0.32,0.79,0.32,1.3v0.04c0,0.54-0.11,1.03-0.32,1.44
			c-0.21,0.42-0.5,0.78-0.86,1.07c-0.36,0.29-0.79,0.52-1.28,0.67C105.35,54.06,104.81,54.14,104.24,54.14z"/>
		<path class="st0" d="M112.23,48.91c0.06,0.6,0.21,1.14,0.44,1.61c0.23,0.47,0.54,0.87,0.9,1.19c0.37,0.32,0.78,0.57,1.23,0.74
			c0.46,0.17,0.93,0.25,1.43,0.25c0.79,0,1.47-0.15,2.04-0.44c0.57-0.29,1.08-0.68,1.55-1.17l1.06,0.95
			c-0.57,0.65-1.23,1.16-1.96,1.55c-0.73,0.39-1.65,0.58-2.73,0.58c-0.78,0-1.51-0.14-2.2-0.43c-0.69-0.29-1.29-0.69-1.81-1.21
			c-0.51-0.52-0.92-1.15-1.22-1.88c-0.3-0.73-0.45-1.54-0.45-2.42c0-0.82,0.14-1.6,0.41-2.33c0.27-0.73,0.65-1.36,1.14-1.9
			c0.49-0.54,1.06-0.96,1.73-1.27c0.67-0.31,1.4-0.46,2.19-0.46c0.84,0,1.59,0.16,2.25,0.47c0.66,0.32,1.22,0.75,1.68,1.29
			c0.46,0.54,0.8,1.18,1.04,1.92c0.23,0.74,0.35,1.52,0.35,2.36c0,0.07,0,0.16,0,0.25c0,0.1-0.01,0.21-0.02,0.34H112.23z
			 M119.57,47.52c-0.04-0.51-0.15-1-0.33-1.46c-0.18-0.46-0.42-0.87-0.72-1.22c-0.3-0.35-0.67-0.63-1.1-0.83
			c-0.43-0.2-0.93-0.31-1.49-0.31c-0.49,0-0.94,0.09-1.37,0.28c-0.43,0.19-0.8,0.46-1.12,0.8c-0.32,0.34-0.59,0.75-0.8,1.22
			c-0.21,0.47-0.35,0.97-0.41,1.51H119.57z"/>
		<path class="st0" d="M127.66,54.16c-0.53,0-1.05-0.07-1.57-0.22c-0.51-0.15-0.97-0.37-1.37-0.67c-0.4-0.3-0.72-0.67-0.96-1.11
			c-0.24-0.44-0.36-0.96-0.36-1.54v-0.04c0-0.62,0.12-1.16,0.35-1.62c0.23-0.46,0.57-0.85,1-1.16c0.43-0.31,0.95-0.54,1.54-0.71
			c0.6-0.16,1.25-0.24,1.97-0.24c0.73,0,1.37,0.04,1.91,0.13c0.54,0.09,1.06,0.21,1.58,0.35v-0.35c0-1.01-0.29-1.77-0.88-2.29
			c-0.59-0.52-1.42-0.78-2.49-0.78c-0.68,0-1.29,0.07-1.84,0.22c-0.55,0.15-1.09,0.35-1.62,0.6l-0.51-1.4
			c0.63-0.3,1.27-0.54,1.92-0.72c0.65-0.18,1.39-0.27,2.23-0.27c1.62,0,2.84,0.42,3.68,1.26c0.79,0.79,1.19,1.91,1.19,3.35v6.97
			h-1.68v-1.7c-0.4,0.51-0.93,0.97-1.6,1.36C129.49,53.96,128.66,54.16,127.66,54.16z M128,52.77c0.53,0,1.02-0.07,1.47-0.22
			c0.45-0.15,0.85-0.35,1.2-0.62s0.62-0.59,0.81-0.97c0.2-0.37,0.3-0.79,0.3-1.24v-1.05c-0.43-0.12-0.91-0.23-1.45-0.33
			c-0.54-0.1-1.16-0.15-1.87-0.15c-1.05,0-1.87,0.21-2.45,0.63c-0.58,0.42-0.87,0.97-0.87,1.66v0.04c0,0.35,0.08,0.67,0.23,0.95
			c0.15,0.29,0.36,0.52,0.63,0.71c0.26,0.19,0.57,0.34,0.91,0.44C127.26,52.72,127.62,52.77,128,52.77z"/>
		<path class="st0" d="M137.03,42.52h1.7v2.98c0.21-0.47,0.46-0.9,0.77-1.3c0.31-0.4,0.66-0.74,1.06-1.03
			c0.4-0.29,0.83-0.5,1.3-0.65c0.47-0.15,0.98-0.21,1.52-0.2v1.83h-0.13c-0.62,0-1.2,0.11-1.75,0.33c-0.55,0.22-1.03,0.55-1.44,0.99
			c-0.41,0.44-0.74,0.99-0.97,1.64c-0.24,0.65-0.35,1.41-0.35,2.26v4.54h-1.7V42.52z"/>
		<path class="st0" d="M150.39,54.18c-0.84,0-1.61-0.16-2.33-0.47c-0.71-0.32-1.33-0.74-1.85-1.28c-0.52-0.54-0.93-1.16-1.22-1.88
			c-0.29-0.72-0.44-1.48-0.44-2.27v-0.04c0-0.81,0.15-1.57,0.44-2.29c0.29-0.72,0.7-1.35,1.22-1.9c0.52-0.54,1.14-0.97,1.85-1.29
			c0.71-0.32,1.49-0.47,2.33-0.47c0.54,0,1.04,0.05,1.48,0.15c0.44,0.1,0.84,0.25,1.21,0.43c0.37,0.18,0.71,0.4,1.01,0.65
			c0.31,0.25,0.6,0.51,0.86,0.79l-1.12,1.19c-0.46-0.47-0.95-0.87-1.49-1.21c-0.54-0.34-1.19-0.51-1.97-0.51
			c-0.57,0-1.11,0.11-1.61,0.34c-0.5,0.23-0.93,0.54-1.3,0.94c-0.37,0.4-0.65,0.86-0.86,1.4c-0.21,0.54-0.31,1.11-0.31,1.73v0.04
			c0,0.62,0.11,1.19,0.32,1.73c0.21,0.54,0.51,1.01,0.88,1.41c0.37,0.4,0.82,0.72,1.32,0.95c0.51,0.23,1.06,0.34,1.66,0.34
			c0.73,0,1.38-0.16,1.95-0.49c0.57-0.32,1.08-0.73,1.53-1.21l1.08,1.01c-0.57,0.65-1.22,1.18-1.95,1.59
			C152.36,53.97,151.46,54.18,150.39,54.18z"/>
		<path class="st0" d="M157.37,37.82h1.7v6.68c0.38-0.62,0.88-1.14,1.5-1.58c0.62-0.43,1.42-0.65,2.4-0.65
			c0.69,0,1.3,0.11,1.84,0.33c0.54,0.22,0.99,0.53,1.37,0.94c0.37,0.4,0.66,0.89,0.86,1.44c0.2,0.56,0.3,1.18,0.3,1.85v7.08h-1.7
			v-6.64c0-1.06-0.27-1.89-0.82-2.51c-0.54-0.62-1.32-0.92-2.34-0.92c-0.48,0-0.94,0.08-1.36,0.25c-0.42,0.17-0.78,0.41-1.09,0.73
			c-0.31,0.32-0.55,0.69-0.72,1.13c-0.17,0.44-0.25,0.92-0.25,1.45v6.51h-1.7V37.82z"/>
	</g>
</g>
</svg>
