<svg 
 xmlns="http://www.w3.org/2000/svg"
 xmlns:xlink="http://www.w3.org/1999/xlink"
 width="92px" height="92px">
<path fill-rule="evenodd"  fill="rgb(31, 73, 165)"
 d="M48.558,91.593 C23.381,93.000 1.825,73.729 0.413,48.549 C-1.000,23.369 18.265,1.816 43.442,0.408 C68.619,-1.000 90.175,18.271 91.587,43.451 C93.000,68.631 73.735,90.185 48.558,91.593 ZM88.199,43.750 C86.895,20.505 66.996,2.715 43.754,4.015 C20.511,5.314 2.727,25.211 4.031,48.456 C5.335,71.701 25.234,89.491 48.476,88.191 C71.719,86.892 89.503,66.995 88.199,43.750 ZM65.904,53.003 C64.373,53.003 62.919,53.335 61.606,53.927 C61.041,53.157 60.421,52.430 59.751,51.753 C61.591,50.788 63.683,50.239 65.904,50.239 C73.233,50.239 79.174,56.180 79.174,63.509 C79.174,64.135 79.127,64.749 79.043,65.352 L76.244,65.352 C76.351,64.753 76.409,64.138 76.409,63.509 C76.409,57.716 71.697,53.003 65.904,53.003 ZM65.904,48.765 C61.324,48.765 57.611,45.052 57.611,40.471 C57.611,35.891 61.324,32.178 65.904,32.178 C70.485,32.178 74.198,35.891 74.198,40.471 C74.198,45.052 70.485,48.765 65.904,48.765 ZM65.904,35.140 C62.964,35.140 60.573,37.532 60.573,40.471 C60.573,43.411 62.964,45.803 65.904,45.803 C68.844,45.803 71.236,43.411 71.236,40.471 C71.236,37.532 68.844,35.140 65.904,35.140 ZM46.000,46.000 C40.656,46.000 36.324,41.668 36.324,36.325 C36.324,30.981 40.656,26.649 46.000,26.649 C51.344,26.649 55.676,30.981 55.676,36.325 C55.676,41.668 51.344,46.000 46.000,46.000 ZM46.000,29.240 C42.094,29.240 38.916,32.418 38.916,36.325 C38.916,40.231 42.094,43.408 46.000,43.408 C49.906,43.408 53.084,40.231 53.084,36.325 C53.084,32.418 49.906,29.240 46.000,29.240 ZM26.096,48.765 C21.515,48.765 17.802,45.052 17.802,40.471 C17.802,35.891 21.515,32.178 26.096,32.178 C30.676,32.178 34.389,35.891 34.389,40.471 C34.389,45.052 30.676,48.765 26.096,48.765 ZM26.096,35.140 C23.156,35.140 20.764,37.532 20.764,40.471 C20.764,43.411 23.156,45.803 26.096,45.803 C29.035,45.803 31.427,43.411 31.427,40.471 C31.427,37.532 29.035,35.140 26.096,35.140 ZM32.249,51.753 C31.579,52.430 30.959,53.157 30.394,53.927 C29.081,53.335 27.627,53.003 26.096,53.003 C20.303,53.003 15.591,57.716 15.591,63.509 C15.591,64.138 15.650,64.753 15.756,65.352 L12.957,65.352 C12.873,64.749 12.826,64.135 12.826,63.509 C12.826,56.180 18.767,50.239 26.096,50.239 C28.317,50.239 30.409,50.788 32.249,51.753 ZM46.000,48.765 C55.161,48.765 62.587,56.191 62.587,65.352 L59.822,65.352 C59.822,57.730 53.622,51.529 46.000,51.529 C38.378,51.529 32.178,57.730 32.178,65.352 L29.413,65.352 C29.413,56.191 36.839,48.765 46.000,48.765 Z"/>
</svg>