<svg 
 xmlns="http://www.w3.org/2000/svg"
 xmlns:xlink="http://www.w3.org/1999/xlink"
 width="27px" height="27px">
<path fill-rule="evenodd"  fill="rgb(255, 115, 64)"
 d="M20.267,1.810 C18.193,0.615 15.943,-0.000 13.500,-0.000 C11.039,-0.000 8.789,0.615 6.715,1.810 C4.640,3.006 3.006,4.641 1.810,6.714 C0.598,8.789 -0.000,11.057 -0.000,13.500 C-0.000,15.961 0.598,18.211 1.810,20.285 C3.006,22.359 4.640,23.976 6.715,25.189 C8.789,26.385 11.039,27.000 13.500,27.000 C15.943,27.000 18.193,26.385 20.267,25.189 C22.342,23.976 23.976,22.359 25.189,20.285 C26.385,18.211 27.000,15.961 27.000,13.500 C27.000,11.057 26.385,8.789 25.189,6.714 C23.976,4.641 22.342,3.006 20.267,1.810 L20.267,1.810 Z"/>
<path fill-rule="evenodd"  fill="rgb(255, 255, 255)"
 d="M13.500,15.300 L8.295,9.986 L5.999,12.321 L13.500,19.993 L21.001,12.321 L18.705,9.986 L13.500,15.300 L13.500,15.300 Z"/>
</svg>